<?xml version="1.0" encoding="UTF-8" standalone="no"?>
<svg
   xmlns:dc="http://purl.org/dc/elements/1.1/"
   xmlns:cc="http://creativecommons.org/ns#"
   xmlns:rdf="http://www.w3.org/1999/02/22-rdf-syntax-ns#"
   xmlns:svg="http://www.w3.org/2000/svg"
   xmlns="http://www.w3.org/2000/svg"
   id="svg8"
   version="1.1"
   viewBox="0 0 52.916665 52.916668"
   height="200"
   width="200">
  <defs
     id="defs2" />
  <metadata
     id="metadata5">
    <rdf:RDF>
      <cc:Work
         rdf:about="">
        <dc:format>image/svg+xml</dc:format>
        <dc:type
           rdf:resource="http://purl.org/dc/dcmitype/StillImage" />
        <dc:title></dc:title>
      </cc:Work>
    </rdf:RDF>
  </metadata>
  <g
     id="layer1">
    <g
       transform="translate(67.279762,-7.3705357)"
       id="g62">
      <path
         style="fill:#5b27d9;fill-opacity:1;stroke-width:0.0711246"
         d="M -67.279762,33.82887 V 7.3705357 h 26.458334 26.458334 V 33.82887 60.287204 h -26.458334 -26.458334 z"
         id="path38" />
      <g
         id="g54">
        <path
           id="path48"
           d="m -25.529649,35.07355 v -5.938901 h 1.920363 1.920363 v -0.995743 -0.995744 h -5.014281 -5.014281 v 0.995744 0.995743 h 1.955925 1.955925 v 5.938901 5.9389 h 1.137993 1.137993 z"
           style="fill:#ffffff;stroke-width:0.0711246" />
        <path
           id="path46"
           d="m -32.428731,40.016706 v -0.995744 h -2.631608 -2.631609 v -2.027049 -2.02705 h 2.311548 2.311548 V 34.006681 33.0465 h -2.311548 -2.311548 v -1.955925 -1.955926 h 2.48936 2.489359 V 28.13826 27.14187 l -3.645133,0.01843 -3.645134,0.01843 -0.01813,6.916863 -0.01813,6.916863 h 3.805516 3.805515 z"
           style="fill:#ffffff;stroke-width:0.0711246" />
        <path
           id="path44"
           d="m -52.145874,35.617409 -0.01992,-5.395041 0.26421,0.469665 c 0.145315,0.258317 1.665619,2.678084 3.378455,5.37726 l 3.114246,4.907595 1.262421,0.01942 1.262422,0.01942 v -6.936285 -6.936285 h -1.103755 -1.103755 l 0.01911,5.317285 0.0191,5.317286 -0.615151,-0.996469 c -0.338332,-0.548054 -1.83029,-2.932831 -3.315462,-5.2995 l -2.700312,-4.303036 -1.325414,-0.01935 -1.325414,-0.01935 v 6.936213 6.936214 h 1.104569 1.104569 z"
           style="fill:#ffffff;stroke-width:0.0711246" />
        <path
           id="path42"
           d="m -57.271722,41.076293 c 0.439003,-0.212517 0.678,-0.554423 0.717095,-1.02587 0.0417,-0.502831 -0.01166,-0.688994 -0.287524,-1.003189 -0.292523,-0.333165 -0.584626,-0.453019 -1.104085,-0.453019 -0.524354,0 -0.990412,0.267658 -1.190788,0.683872 -0.161271,0.334987 -0.168806,0.908539 -0.0158,1.202774 0.344139,0.661797 1.190562,0.929718 1.881104,0.595432 z"
           style="fill:#ffffff;stroke-width:0.0711246" />
      </g>
    </g>
  </g>
</svg>
