<?xml version="1.0" encoding="UTF-8" standalone="no"?>
<svg
   xmlns:dc="http://purl.org/dc/elements/1.1/"
   xmlns:cc="http://creativecommons.org/ns#"
   xmlns:rdf="http://www.w3.org/1999/02/22-rdf-syntax-ns#"
   xmlns:svg="http://www.w3.org/2000/svg"
   xmlns="http://www.w3.org/2000/svg"
   id="svg857"
   version="1.1"
   viewBox="0 0 52.916665 52.916668"
   height="200"
   width="200">
  <defs
     id="defs851" />
  <metadata
     id="metadata854">
    <rdf:RDF>
      <cc:Work
         rdf:about="">
        <dc:format>image/svg+xml</dc:format>
        <dc:type
           rdf:resource="http://purl.org/dc/dcmitype/StillImage" />
        <dc:title></dc:title>
      </cc:Work>
    </rdf:RDF>
  </metadata>
  <g
     id="layer1">
    <rect
       y="1.110223e-16"
       x="0"
       height="52.916668"
       width="52.916668"
       id="rect1436"
       style="fill:#f0db4f;fill-opacity:1;stroke:none;stroke-width:1.30257" />
    <path
       id="path1434"
       d="m 20.944417,48.691894 c -1.523422,-0.04831 -2.927683,-0.438224 -4.069292,-1.129908 -1.127725,-0.683271 -2.053722,-1.665784 -2.731568,-2.898277 -0.100944,-0.183545 -0.24764,-0.477471 -0.24764,-0.496186 0,-0.0065 0.215503,-0.141899 0.478896,-0.300879 1.32134,-0.797538 2.443373,-1.476424 2.780771,-1.682502 0.3773,-0.230451 0.762925,-0.455606 0.779547,-0.455153 0.0049,1.38e-4 0.05851,0.08943 0.119127,0.198438 0.402879,0.724469 0.695158,1.140841 1.053688,1.501053 0.263508,0.264744 0.457208,0.412272 0.711449,0.541862 0.464311,0.236664 0.957599,0.326289 1.590069,0.288899 0.491132,-0.02903 0.845451,-0.112017 1.16439,-0.272705 0.19418,-0.09783 0.324667,-0.19058 0.466553,-0.331622 0.451947,-0.449255 0.682095,-1.128822 0.729396,-2.153709 0.0071,-0.153145 0.01078,-3.140564 0.01085,-8.728604 l 1.01e-4,-8.495771 h 2.481791 2.481792 l -1.38e-4,8.553979 c -1.37e-4,8.300875 -0.0019,8.821457 -0.03199,9.236605 -0.160516,2.217472 -0.926146,3.911841 -2.278052,5.041418 -0.704754,0.588855 -1.597789,1.036167 -2.56874,1.286655 -0.695527,0.179433 -1.364263,0.270506 -2.180167,0.296909 -0.348945,0.01129 -0.369309,0.01128 -0.740833,-5.08e-4 z m 19.214042,0.005 c -0.724856,-0.02378 -1.41518,-0.09275 -2.006188,-0.200439 -1.665007,-0.303376 -3.200165,-0.992206 -4.395917,-1.972461 -0.926476,-0.759507 -1.712146,-1.723209 -2.223283,-2.727073 l -0.08987,-0.176504 0.462962,-0.264386 c 0.499015,-0.284975 0.833278,-0.477936 1.902296,-1.098142 0.965648,-0.560233 1.647258,-0.953736 1.661471,-0.959189 0.0067,-0.0026 0.04232,0.04435 0.07925,0.104223 0.474932,0.769888 1.070994,1.45205 1.661819,1.901863 0.730814,0.556392 1.550702,0.868206 2.554347,0.971453 0.25349,0.02608 0.945784,0.0261 1.176278,0 0.716531,-0.08102 1.270641,-0.262099 1.751512,-0.57238 0.540484,-0.348746 0.911524,-0.883981 1.009733,-1.456563 0.0563,-0.328225 0.04282,-0.703556 -0.03652,-1.01717 -0.150491,-0.594839 -0.515707,-1.058249 -1.179556,-1.496699 -0.53391,-0.352629 -1.146278,-0.648695 -2.899834,-1.402001 -1.490701,-0.640387 -1.954386,-0.859141 -2.629958,-1.240748 -0.912169,-0.515251 -1.679046,-1.094674 -2.241982,-1.693952 -1.058884,-1.127246 -1.615447,-2.421185 -1.75808,-4.087306 -0.006,-0.06985 -0.01633,-0.269164 -0.023,-0.44292 -0.03883,-1.011772 0.114188,-1.937039 0.464957,-2.811455 0.346731,-0.864351 0.901502,-1.651391 1.601057,-2.271384 1.084934,-0.961542 2.480062,-1.549275 4.116045,-1.733992 0.60275,-0.06806 1.388144,-0.076 2.058458,-0.02081 1.41849,0.116774 2.590155,0.493425 3.59017,1.154117 0.933479,0.616734 1.709488,1.467602 2.405623,2.637691 0.06284,0.105624 0.07485,0.132539 0.06254,0.140095 -0.0084,0.0051 -0.153359,0.100223 -0.322163,0.211287 -0.442523,0.291154 -0.959648,0.625015 -1.963208,1.267463 -0.48604,0.311148 -1.029929,0.660394 -1.208643,0.776104 -0.178715,0.115708 -0.331168,0.212771 -0.338785,0.215694 -0.009,0.0034 -0.04546,-0.04771 -0.10369,-0.145371 -0.706177,-1.184444 -1.42203,-1.745222 -2.44924,-1.918658 -0.230289,-0.03888 -0.432045,-0.05125 -0.724981,-0.04444 -0.359619,0.0084 -0.550728,0.03923 -0.841798,0.135972 -0.809488,0.269052 -1.323034,0.870854 -1.440779,1.68838 -0.02624,0.182185 -0.0239,0.492687 0.0052,0.685983 0.05646,0.375424 0.149015,0.628411 0.32753,0.895249 0.183755,0.274672 0.421632,0.502706 0.774466,0.742417 0.505399,0.343363 1.028276,0.602035 2.423583,1.198974 1.770856,0.757605 2.515802,1.113562 3.359885,1.605452 2.523019,1.47029 3.700676,3.155903 3.93198,5.62795 0.139629,1.492273 -0.07679,2.825009 -0.645342,3.974042 -0.279603,0.565076 -0.625314,1.049276 -1.079516,1.511958 -0.395859,0.403252 -0.78657,0.713269 -1.291483,1.024751 -1.101573,0.679561 -2.563235,1.11931 -4.143232,1.246513 -0.351489,0.0283 -1.030421,0.04668 -1.344084,0.03639 z"
       style="fill:#323330;fill-opacity:1;stroke-width:0.0105833" />
  </g>
</svg>
