<?xml version="1.0" encoding="UTF-8" standalone="no"?>
<svg
   xmlns:dc="http://purl.org/dc/elements/1.1/"
   xmlns:cc="http://creativecommons.org/ns#"
   xmlns:rdf="http://www.w3.org/1999/02/22-rdf-syntax-ns#"
   xmlns:svg="http://www.w3.org/2000/svg"
   xmlns="http://www.w3.org/2000/svg"
   xmlns:sodipodi="http://sodipodi.sourceforge.net/DTD/sodipodi-0.dtd"
   xmlns:inkscape="http://www.inkscape.org/namespaces/inkscape"
   inkscape:version="1.0 (4035a4fb49, 2020-05-01)"
   height="200"
   width="200"
   sodipodi:docname="Microsoft SQL Server.svg"
   xml:space="preserve"
   viewBox="0 0 200 200"
   y="0px"
   x="0px"
   id="Layer_1"
   version="1.1"><metadata
   id="metadata34"><rdf:RDF><cc:Work
       rdf:about=""><dc:format>image/svg+xml</dc:format><dc:type
         rdf:resource="http://purl.org/dc/dcmitype/StillImage" /><dc:title></dc:title></cc:Work></rdf:RDF></metadata><defs
   id="defs32" /><sodipodi:namedview
   inkscape:current-layer="Layer_1"
   inkscape:window-maximized="1"
   inkscape:window-y="-8"
   inkscape:window-x="-8"
   inkscape:cy="132.35294"
   inkscape:cx="295.88235"
   inkscape:zoom="1.7"
   showgrid="false"
   id="namedview30"
   inkscape:window-height="1017"
   inkscape:window-width="1920"
   inkscape:pageshadow="2"
   inkscape:pageopacity="0"
   guidetolerance="10"
   gridtolerance="10"
   objecttolerance="10"
   borderopacity="1"
   bordercolor="#666666"
   pagecolor="#ffffff" />
<style
   id="style2"
   type="text/css">
	.st0{fill:url(#SVGID_1_);}
	.st1{fill:url(#SVGID_2_);}
	.st2{fill:url(#SVGID_3_);}
	.st3{fill:#231F1F;}
</style>
<g
   transform="matrix(0.54822184,0,0,0.54822184,-37.058074,-37.082354)"
   id="g27">
	
		<linearGradient
   gradientTransform="matrix(99.8224,-58.9835,-58.9835,-99.8224,148.6776,491.9286)"
   y2="1.192"
   x2="1.6568"
   y1="1.192"
   x1="1.5108"
   gradientUnits="userSpaceOnUse"
   id="SVGID_1_">
		<stop
   id="stop4"
   style="stop-color:#909CA9"
   offset="0" />
		<stop
   id="stop6"
   style="stop-color:#EDEDEE"
   offset="1" />
	</linearGradient>
	<path
   style="fill:url(#SVGID_1_)"
   id="path9"
   d="m 315,196.4 -40.3,13.2 -35.1,15.5 -9.8,2.6 c -2.5,2.4 -5.1,4.8 -8,7.2 -3.1,2.7 -6,5.1 -8.2,6.9 -2.5,2 -6.1,5.6 -8,7.9 -2.8,3.5 -5,7.2 -5.9,10 -1.7,5.1 -0.9,10.3 2.4,15.1 4.1,6.1 12.4,12.3 22,16.5 4.9,2.2 13.2,4.9 19.4,6.5 10.3,2.6 30.3,5.5 41.3,5.9 2.2,0.1 5.2,0.1 5.3,0 0.2,-0.2 2,-3.4 3.9,-7.5 6.8,-13.8 11.6,-26.8 14.3,-37.8 1.6,-6.7 2.8,-15.6 3.7,-26.2 0.2,-3 0.3,-12.9 0.1,-16.2 -0.3,-5.5 -0.8,-9.9 -1.5,-14.3 -0.1,-0.6 -0.2,-1.2 -0.1,-1.2 0.1,-0.1 0.5,-0.2 5.5,-1.6 z m -9.2,5.4 c 0.4,0 1.3,9.4 1.6,15.3 0.1,1.2 0,2.1 0,2.1 -0.2,0 -5.1,-2.9 -8.7,-5.1 -3,-1.9 -8.8,-5.8 -9.7,-6.5 -0.3,-0.2 -0.3,-0.2 2.2,-1.1 4.2,-1.5 14.2,-4.7 14.6,-4.7 z m -20.6,6.8 c 0.3,0 1,0.4 2.7,1.4 6.3,3.9 14.8,8.7 18.5,10.3 1.1,0.5 1.2,0.3 -1.3,2.1 -5.5,3.8 -12.5,7.5 -20.9,11.2 -1.5,0.7 -2.7,1.2 -2.8,1.2 -0.1,0 0.1,-0.8 0.4,-1.7 2,-7.6 3.2,-15.3 3.3,-21.4 -0.2,-3.1 -0.2,-3.1 0.1,-3.1 0,0 0,0 0,0 z m -4.2,1.6 c 0.2,0.2 0.1,7 -0.2,8.9 -0.5,4.4 -1.4,8.6 -2.8,13.3 -0.3,1.1 -0.6,2.1 -0.7,2.1 -0.1,0.2 -4.3,-3.9 -5.7,-5.5 -2.4,-2.7 -4.2,-5.5 -5.6,-8.2 -0.7,-1.4 -1.8,-4.1 -1.7,-4.1 0.5,-0.4 16.6,-6.6 16.7,-6.5 z m -19.9,7.8 c 0,0 0,0 0,0 0.2,0.1 0.4,0.6 0.5,1.1 1,2.7 3.2,6.6 5.1,9 2.1,2.7 4.8,5.7 7,7.6 0.7,0.6 1.4,1.2 1.5,1.3 0.2,0.2 0.2,0.2 -4.7,2 -5.8,2.2 -12,4.4 -19.2,6.7 -1.7,0.6 -3.4,1.1 -5.1,1.7 -0.3,0.1 -0.2,-0.1 0.6,-1.3 3.6,-5.6 9,-16.5 12,-24.3 0.5,-1.3 1,-2.7 1.1,-3 0.1,-0.4 0.3,-0.6 0.7,-0.8 0.2,0.1 0.4,0 0.5,0 z m -6.1,2.5 c 0.1,0.1 -1.5,3.3 -3,6.3 -3,5.8 -6.2,11.4 -10.5,18.3 -0.7,1.2 -1.4,2.3 -1.5,2.4 -0.2,0.2 -0.2,0.2 -0.7,-0.8 -1,-2 -1.9,-4.7 -2.3,-7.1 -0.5,-2.4 -0.4,-6.5 0.2,-9.1 0.4,-1.9 0.4,-1.9 1.3,-2.3 3.7,-1.9 16.3,-7.8 16.5,-7.7 z m 52.5,2.2 v 1.3 c 0,6.8 -0.7,16.1 -1.8,22.9 -0.2,1.2 -0.3,2.2 -0.4,2.2 0,0 -0.9,-0.2 -1.9,-0.5 -4.6,-1.4 -9.5,-3.5 -14,-6 -3,-1.6 -7.3,-4.3 -7.1,-4.4 0,0 1.3,-0.7 2.8,-1.5 6,-3.1 11.7,-6.5 16.7,-9.8 1.9,-1.2 4.7,-3.3 5.3,-3.8 z m -75.5,9 c 0.1,0 0.1,0.2 -0.1,1.3 -0.1,0.8 -0.3,2.3 -0.3,3.3 -0.2,4.4 0.5,7.7 2.7,12.2 0.6,1.2 1.1,2.3 1.1,2.3 -0.2,0.2 -20.4,6.1 -26.7,7.8 -1.9,0.5 -3.5,1 -3.7,1 -0.2,0.1 -0.2,0 -0.2,-0.5 0.7,-4.5 4.1,-10.3 8.9,-15.3 3.2,-3.3 5.7,-5.2 10,-7.7 3.1,-1.6 7.8,-4.3 8.3,-4.4 -0.1,0 -0.1,0 0,0 z m 47.5,8.5 c 0,0 0.8,0.4 1.6,0.9 6.5,3.8 15.6,7.3 23.3,9.1 l 0.7,0.2 -1,0.5 c -4.1,2.3 -17.4,7.8 -31,12.9 -2,0.7 -3.9,1.5 -4.3,1.6 -0.4,0.2 -0.7,0.2 -0.7,0.2 0,0 0.5,-1.1 1.2,-2.4 3.8,-7.1 7.6,-15.8 9.6,-21.8 0.4,-0.7 0.6,-1.2 0.6,-1.2 z m -4.8,1.6 c 0,0 -0.2,0.7 -0.5,1.4 -2.7,6.4 -6.1,13.4 -10.6,21.3 -1.1,2 -2.1,3.6 -2.1,3.6 0,0 -0.9,-0.5 -2,-1.2 -6.5,-4 -12.2,-8.8 -15.9,-13.6 l -0.5,-0.7 2.8,-0.8 c 9.9,-2.7 18.4,-5.6 26.8,-9.2 0.9,-0.4 1.9,-0.8 2,-0.8 z m 30.1,10.5 c 0,0 0,0 0,0 0,0.7 -1.5,7 -2.8,11.5 -1.1,3.8 -2,6.8 -3.7,12.1 -0.7,2.3 -1.4,4.2 -1.4,4.2 0,0 -0.2,0 -0.4,-0.1 -9,-1.6 -17.2,-3.9 -24.8,-7 -2.1,-0.9 -5.2,-2.2 -5.4,-2.4 -0.1,-0.1 1.8,-0.9 4.1,-1.9 13.9,-6.1 28.2,-12.9 33.2,-15.9 0.6,-0.3 1.1,-0.5 1.2,-0.5 z m -69.5,2.4 c 0.1,0.1 -3.8,5.6 -9.2,13.2 -1.9,2.7 -4.1,5.8 -4.9,6.9 -0.8,1.2 -2.1,3 -2.8,4.1 l -1.3,2 -1.4,-1.2 c -1.6,-1.3 -4.4,-4.2 -5.7,-5.8 -2.6,-3.3 -4.4,-6.7 -5.1,-9.8 -0.3,-1.5 -0.3,-2.2 0,-2.3 0.5,-0.1 8.6,-2 16.2,-3.8 4.2,-1 9.1,-2.1 10.9,-2.6 1.8,-0.4 3.2,-0.7 3.3,-0.7 z m 3.9,1.5 1,1.1 c 4.4,4.9 8.9,8.5 14.3,11.7 1,0.5 1.7,1 1.6,1.1 -0.2,0.2 -18.8,6.8 -27.5,9.7 -4.8,1.7 -8.8,3.1 -8.9,3.1 0,0 -0.3,-0.2 -0.6,-0.4 l -0.5,-0.4 0.9,-1.3 c 2.9,-4.1 6.5,-8.7 14.3,-18.1 z m 24.3,17.4 c 0,0 1.4,0.5 3,1.1 4,1.5 7.1,2.4 11.3,3.5 5.2,1.3 12.7,2.6 17.1,3 0.7,0.1 1,0.1 0.9,0.2 -0.2,0.1 -4.7,1.6 -8,2.7 -5.2,1.6 -21.2,6.4 -34.3,10.1 -2.4,0.7 -4.5,1.3 -4.6,1.3 -0.3,0.1 -1.3,-0.2 -1.3,-0.3 0,-0.1 0.7,-1 1.6,-2 4.4,-5.2 8.7,-11.1 12.4,-16.6 1,-1.8 1.9,-3 1.9,-3 z m -5.4,0.1 c 0,0 -2.1,3.5 -5.9,9.5 -1.6,2.5 -3.4,5.4 -4.1,6.4 -0.6,1 -1.5,2.5 -2,3.4 l -0.9,1.6 -0.5,-0.1 c -1.1,-0.3 -8.8,-3 -10.8,-3.8 -2.5,-1 -5.1,-2.2 -7.1,-3.3 -2.4,-1.3 -5.5,-3.3 -5.2,-3.3 0.1,0 4.2,-1.2 9.3,-2.5 13.3,-3.6 20.7,-5.7 25.6,-7.3 0.8,-0.4 1.6,-0.6 1.6,-0.6 z m 37.9,8.9 v 0 c 0.2,0.3 -4.8,14 -6.6,18.3 -0.4,1 -0.5,1.2 -0.8,1.2 -0.5,0 -7.7,-1 -12,-1.7 -7.6,-1.2 -20.3,-3.4 -23.5,-4.1 l -0.7,-0.2 4.5,-1 c 9.8,-2.2 14.4,-3.4 19.2,-4.8 6,-1.8 11.9,-4.1 17.9,-6.9 1,-0.4 1.8,-0.8 2,-0.8 z"
   class="st0" />
	
		<linearGradient
   gradientTransform="matrix(80.3196,0,0,-80.3196,150.7249,-619.3312)"
   y2="-9.2236996"
   x2="1.127"
   y1="-9.2236996"
   x1="0.98089999"
   gradientUnits="userSpaceOnUse"
   id="SVGID_2_">
		<stop
   id="stop11"
   style="stop-color:#939FAB"
   offset="0" />
		<stop
   id="stop13"
   style="stop-color:#DCDEE1"
   offset="1" />
	</linearGradient>
	<path
   style="fill:url(#SVGID_2_)"
   id="path16"
   d="m 273.4,102.5 c -0.7,-0.1 -11.5,3.8 -18.5,6.6 -9.4,3.8 -16.7,7.5 -21.2,10.7 -1.7,1.2 -3.8,3.3 -4.1,4.1 -0.1,0.3 -0.2,0.7 -0.2,1 l 4.1,3.9 9.7,3.1 23.1,4.1 26.4,4.5 0.3,-2.3 c -0.1,0 -0.2,0 -0.2,0 l -3.5,-0.5 -0.7,-1.2 c -3.6,-6.3 -7.6,-14.2 -9.9,-19.5 -1.8,-4.1 -3.5,-8.9 -4.4,-12.3 -0.5,-2.1 -0.6,-2.2 -0.9,-2.2 z m -0.5,1.5 v 0 c 0.1,0 0.2,0.9 0.3,1.9 0.5,4.3 1.5,8.4 3,12.8 1.1,3.4 1.1,3.2 -0.2,2.8 -3.1,-0.9 -17,-3.3 -27.1,-4.7 -1.6,-0.2 -3,-0.4 -3,-0.5 -0.1,-0.1 7.3,-4 10.5,-5.5 4.2,-1.9 15.7,-6.6 16.5,-6.8 z m -29.4,13.7 1.2,0.4 c 6.5,2.2 22.7,5.3 31.7,6 1,0.1 1.9,0.2 1.9,0.2 0,0 -0.8,0.5 -1.9,1 -4.3,2.2 -9.1,4.8 -12.4,6.9 -1,0.6 -1.9,1.1 -2,1.1 -0.1,0 -0.8,-0.1 -1.4,-0.2 l -1.2,-0.2 -3,-3 c -5.4,-5.2 -9.6,-9.2 -11.2,-10.8 z m -1.2,0.9 4.3,5.4 c 2.3,3 4.7,5.8 5.2,6.5 0.5,0.6 0.9,1.2 0.9,1.2 -0.1,0.1 -6.2,-1.1 -9.4,-1.8 -3.3,-0.8 -4.7,-1.1 -6.7,-1.8 l -1.7,-0.5 v -0.4 c 0,-2 2.6,-5.1 7,-8.2 z m 36.5,7.3 c 0.1,0 0.3,0.3 0.6,1.1 1,2.3 4.3,8.4 5.1,9.6 0.2,0.4 0.7,0.4 -3.6,-0.3 -10.3,-1.7 -13.6,-2.2 -13.6,-2.3 0,0 0.3,-0.2 0.7,-0.5 3.2,-1.8 6.4,-4 9.3,-6.4 0.7,-0.6 1.3,-1.1 1.5,-1.2 -0.1,0 0,0 0,0 z"
   class="st1" />
	
		<radialGradient
   gradientUnits="userSpaceOnUse"
   gradientTransform="matrix(-102.4055,-15.3824,-31.1105,204.8109,556.1689,-251.717)"
   r="0.146"
   cy="2.2298999"
   cx="1.9345"
   id="SVGID_3_">
		<stop
   id="stop18"
   style="stop-color:#EE352C"
   offset="0" />
		<stop
   id="stop20"
   style="stop-color:#A91D22"
   offset="1" />
	</radialGradient>
	<path
   style="fill:url(#SVGID_3_)"
   id="path23"
   d="m 229.8,123.4 c 0,0 -0.7,1.1 0,2.7 0.4,1 1.6,2.2 2.9,3.4 0,0 13.6,13.2 15.2,15.1 7.5,8.7 10.8,17.2 11.1,28.9 0.2,7.6 -1.2,14.2 -4.8,21.9 -6.3,13.8 -19.7,29.1 -40.3,46 l 3,-1 c 1.9,-1.5 4.6,-3 10.8,-6.4 14.4,-7.9 30.5,-15.1 50.3,-22.5 28.5,-10.7 75.4,-23.3 102.1,-27.4 l 2.8,-0.4 -0.4,-0.7 c -2.4,-3.8 -4.1,-6.1 -6.1,-8.6 -5.8,-7.3 -12.9,-13.1 -21.6,-18 -11.9,-6.7 -27.4,-11.9 -47,-15.8 -3.7,-0.7 -11.8,-2.1 -18.4,-3.1 -14,-2.2 -23,-3.7 -32.9,-5.4 -3.6,-0.6 -8.9,-1.5 -12.4,-2.3 -1.8,-0.4 -5.3,-1.2 -8.1,-2.2 -2.4,-0.7 -5.5,-1.6 -6.2,-4.2 z m 7.9,7.7 c 0,0 0.5,0.2 1.2,0.4 1.2,0.4 2.7,0.9 4.4,1.3 1.3,0.4 2.7,0.7 4,1.1 1.8,0.5 3.4,0.9 3.4,0.9 0.2,0.2 3.3,10.1 4.3,13.8 0.4,1.4 0.7,2.7 0.7,2.7 0,0 -0.4,-0.5 -0.8,-1.2 -3.6,-6.3 -9.2,-12.6 -15.7,-17.8 -0.9,-0.7 -1.5,-1.2 -1.5,-1.2 z m 15,4.1 c 0.2,0 0.8,0.1 1.6,0.3 5.2,1.2 14.5,2.9 20.4,3.9 1,0.2 1.8,0.3 1.8,0.4 0,0.1 -0.4,0.3 -0.8,0.5 -1,0.5 -5.1,2.9 -6.4,3.8 -3.4,2.3 -6.4,4.7 -8.6,6.9 -0.9,0.9 -1.6,1.6 -1.6,1.6 0,0 -0.2,-0.5 -0.3,-1.2 -1.1,-4.2 -3.4,-10.5 -5.5,-14.9 -0.4,-0.6 -0.7,-1.3 -0.6,-1.3 -0.1,0 -0.1,0 0,0 z m 26.3,5 c 0.2,0.1 0.5,1.1 1.1,3.4 1.1,4.4 1.6,9.4 1.5,14 -0.1,1.3 -0.1,2.5 -0.2,2.6 l -0.1,0.3 -1.6,-0.5 c -3.3,-1 -8.6,-2.6 -13.1,-3.9 -2.6,-0.7 -4.7,-1.3 -4.7,-1.4 0,-0.2 3.8,-4 5.4,-5.4 3.1,-2.7 11.5,-9.2 11.7,-9.1 z m 2.1,0.3 c 0.1,-0.1 12.6,2.1 18.3,3.2 4.2,0.8 10.4,2.1 10.8,2.3 0.2,0.1 -0.5,0.4 -2.5,1.3 -8,3.6 -14,6.9 -20,10.8 -1.6,1 -2.9,1.9 -2.9,1.9 0,0 -0.1,-0.9 -0.1,-1.9 0,-5.8 -1.2,-11.6 -3.3,-16.6 -0.1,-0.5 -0.3,-0.9 -0.3,-1 z m 32.4,6.4 c 0.1,0.1 -0.3,2.6 -0.7,4 -1.1,4.5 -4.1,11.3 -7.7,17.6 -0.6,1.1 -1.2,2 -1.3,2.1 -0.1,0 -0.9,-0.4 -1.8,-1 -3.5,-2.1 -7.6,-4 -11.9,-5.8 -1.2,-0.5 -2.3,-0.9 -2.3,-1 -0.2,-0.2 9.6,-6.7 14.8,-9.8 4.1,-2.5 10.8,-6.2 10.9,-6.1 z m 2.3,0.4 c 0.3,0 5.8,1.5 8.7,2.4 7.2,2.1 15.4,5.1 20.7,7.6 l 2.2,1 -1.6,0.4 c -13.1,3 -24.3,6.5 -35.1,10.9 -0.9,0.4 -1.7,0.7 -1.7,0.7 -0.1,0 0.2,-0.7 0.6,-1.6 3.3,-6.9 5.4,-14.1 5.9,-20.3 0.2,-0.6 0.3,-1.1 0.3,-1.1 z M 260.6,160 c 0.1,-0.1 4.3,0.9 6.6,1.6 3.5,1 10.8,3.4 10.8,3.6 0,0 -0.8,0.7 -1.8,1.6 -4,3.3 -7.8,6.8 -12.4,11.3 -1.4,1.3 -2.5,2.4 -2.6,2.4 -0.1,0 -0.1,-0.2 -0.1,-0.4 0.7,-5.1 0.5,-11.7 -0.4,-18.4 0,-1 -0.1,-1.7 -0.1,-1.7 z m 89,0.1 c 0.1,0.1 -2,3.2 -3.2,5 -1.8,2.6 -4.5,6.1 -10.6,13.7 -3.2,4 -6.8,8.6 -8,10.1 -1.2,1.5 -2.2,2.8 -2.3,2.8 0,0 -0.4,-0.5 -0.9,-1.2 -3.4,-5.1 -7.5,-9.6 -12.3,-13.6 -0.9,-0.8 -1.9,-1.6 -2.3,-1.8 -0.3,-0.2 -0.6,-0.5 -0.6,-0.5 0,-0.1 5.2,-2.3 9.1,-3.9 6.9,-2.8 16.3,-6.2 23.3,-8.3 3.8,-1.3 7.8,-2.4 7.8,-2.3 z m 2.4,0.6 c 0.1,0 0.9,0.3 1.7,0.9 7.4,4.2 14.7,9.7 20.4,15.3 1.6,1.6 5.6,5.7 5.5,5.8 0,0 -1.4,0.1 -3,0.2 -12.8,1 -29.2,3.7 -45,7.5 -1.1,0.2 -2,0.5 -2.1,0.5 -0.1,0 1.1,-1.2 2.6,-2.6 9.3,-8.9 13.5,-14.6 18.5,-24.6 0.7,-1.7 1.3,-2.9 1.4,-3 -0.1,0 -0.1,0 0,0 z m -67.9,6.9 c 0.4,0.1 4.4,2 7.4,3.4 2.7,1.4 6.9,3.6 7.1,3.7 0,0 -1.4,0.8 -3.2,1.7 -5.7,2.9 -10.6,5.6 -15.8,8.7 -1.5,0.9 -2.7,1.6 -2.7,1.6 -0.1,0 -0.1,-0.1 0.7,-1.6 2.7,-5 4.9,-11 6.2,-16.8 0.1,-0.4 0.2,-0.7 0.3,-0.7 z m -3.9,0.8 c 0.1,0.1 -0.9,3.8 -1.6,5.9 -1.2,3.9 -3.4,8.7 -5.4,12.4 -0.5,0.9 -1.2,2.1 -1.6,2.8 l -0.8,1.2 -1.7,-1.6 c -2,-1.9 -3.6,-3.1 -5.7,-4.2 -0.8,-0.4 -1.5,-0.8 -1.5,-0.9 0,-0.2 5.2,-5 9.2,-8.4 2.9,-2.5 9,-7.3 9.1,-7.2 z m 24.2,9.9 1.5,1 c 3.4,2.2 7.4,5.2 10.5,7.8 1.7,1.4 5.1,4.4 5.8,5.2 l 0.4,0.4 -2.5,0.7 c -14,3.9 -24.7,7.3 -37.3,11.9 -1.4,0.5 -2.6,0.9 -2.7,0.9 -0.2,0 -0.3,0.2 2.8,-2.7 8,-7.4 15.2,-15.6 20.5,-23.5 z m -6.4,1.6 c 0.1,0.1 -4.1,5.9 -6.6,9.3 -3,4 -8.3,10.6 -11.9,14.9 -1.5,1.8 -2.8,3.3 -2.9,3.3 -0.1,0 -0.1,-0.4 -0.1,-1.1 0,-3.7 -0.9,-7.6 -2.6,-11 -0.7,-1.4 -0.8,-1.7 -0.7,-1.9 0.6,-0.5 9.4,-5.6 15.1,-8.6 3.7,-2 9.6,-5 9.7,-4.9 z m -38.5,9.4 c 0.1,0 0.8,0.4 1.6,0.8 1.9,1.1 3.7,2.3 5.2,3.5 0.1,0.1 -0.7,0.7 -1.8,1.5 -2.9,2.1 -7.3,5.4 -9.8,7.4 -2.7,2.1 -2.8,2.2 -2.5,1.7 2,-3.1 3,-4.8 4.1,-7 0.9,-2 1.9,-4.3 2.6,-6.4 0.2,-0.8 0.5,-1.5 0.6,-1.5 z m 10.3,8.1 c 0.2,0 0.3,0.2 1.2,1.5 1.7,2.6 3.1,6.1 3.4,8.9 l 0.1,0.6 -4.2,1.6 c -7.5,2.9 -14.4,5.8 -19,7.9 -1.3,0.6 -3.6,1.7 -5.1,2.4 -1.5,0.8 -2.7,1.3 -2.7,1.3 0,0 0.9,-0.7 2.1,-1.6 9.1,-6.6 17,-13.9 22.9,-21.1 0.6,-0.8 1.2,-1.5 1.3,-1.5 z m -4.7,1.1 c 0.1,0.1 -3.4,4.1 -5.7,6.5 -5.9,6 -11.7,10.7 -18.9,15.3 -0.9,0.6 -1.7,1.1 -1.8,1.2 -0.2,0.1 0.1,-0.2 3.2,-3.6 2,-2.2 3.5,-4 5.3,-6.2 1.2,-1.5 1.4,-1.7 3,-2.9 4.4,-3.4 14.7,-10.4 14.9,-10.3 z"
   class="st2" />
	<path
   id="path25"
   d="m 133.1,324.7 c -0.6,0 -1.1,0.1 -1.7,0.1 -11.4,0.6 -19,5.6 -23.5,15.4 -3.8,8.8 -3.4,20.4 0,29.2 4,8.7 10.5,13.3 21.3,15 2.3,0.4 3.8,1.6 8.3,6.8 l 5.5,6.4 h 9.9 l -6.6,-6.6 c -3.6,-3.6 -6.6,-6.8 -6.6,-7.1 0,-0.3 1.4,-0.9 3.1,-1.4 5.6,-1.7 10.2,-6 13.4,-12.6 2.6,-5.3 3,-6.9 3.4,-13.5 1,-19.6 -9.3,-31.8 -26.5,-31.7 z m 8.7,51.2 c -4.8,2.3 -11.8,2.8 -16.4,1.1 -4.7,-1.7 -9.3,-6.6 -11.4,-12.2 -2.3,-6.1 -2,-17.3 0.7,-22.3 4.2,-8 9.8,-11.7 17.9,-11.7 12,0 18.9,7.4 19.8,21.2 0.7,11.6 -3.2,20.3 -10.6,23.9 z m 171.1,-34.5 c -4.2,0 -7.3,1.7 -9.5,5 l -1.7,2.6 v -6.8 h -7.2 v 40.9 h 7.2 V 370 c 0,-12 0.1,-13.4 1.8,-16.6 2.3,-4.5 6.3,-6.7 10.1,-5.7 l 2.6,0.7 v -7.1 z M 270.7,341 c -1.4,0 -2.9,0.2 -4.4,0.5 -9.6,2.5 -15,11.7 -14.7,21.2 0,7.9 1.5,11.9 5.4,16.1 7.8,6.4 14.9,6.9 24.5,3.5 1.6,-0.7 3.4,-1.5 3.4,-1.5 v -6.4 l -3.4,1.8 c -7.7,3.4 -13.6,3.4 -18.3,-0.6 -3,-3 -4.3,-6.7 -4.9,-10.8 h 29 v -5.5 c 0,-11.3 -6.8,-18.4 -16.6,-18.3 z M 259,359 c 0,0 1.1,-7 5,-9.8 1.9,-1.3 4.1,-2 6.3,-2 2.2,0 4.3,0.7 6.1,2.1 3.6,2.8 4.3,9.7 4.3,9.7 z M 85.6,351.6 c -7.8,-4.7 -11.3,-8.1 -10.8,-12.1 1.2,-11.1 14.9,-9.6 22.5,-5.4 l 0.1,-7.5 c 0,0 -4.2,-1.8 -10.2,-1.9 -9.2,-0.1 -15.2,2.9 -18,9.1 -4.1,9.1 -0.5,16 12.7,23.6 7.4,4.3 10.7,8 10.7,12.1 0,8.4 -10.1,11.3 -20.6,6.1 -2.2,-1.1 -4,-2 -4.1,-2 -0.4,2.4 -0.2,8.1 -0.2,8.1 0,0 3.2,1.3 8,2.3 12,2.4 22.8,-3.2 23.9,-12.3 0.8,-8.6 -2.3,-13.1 -14,-20.1 z m 291,-10.6 c -1.4,0 -2.9,0.2 -4.4,0.5 -9.6,2.5 -15,11.7 -14.7,21.2 0,7.9 1.5,11.9 5.4,16 7.8,6.4 14.9,7 24.6,3.5 1.6,-0.7 3.4,-1.5 3.4,-1.5 v -6.4 l -3.4,1.8 c -7.8,3.4 -13.6,3.4 -18.3,-0.6 -3,-3 -4.3,-6.6 -4.9,-10.8 h 28.9 v -5.5 c 0,-11.3 -6.8,-18.4 -16.6,-18.2 z m -11.8,17.9 c 0,0 1.1,-7 5,-9.8 1.9,-1.4 4.1,-2 6.2,-2 2.1,0 4.3,0.7 6.1,2.1 3.6,2.8 4.3,9.7 4.3,9.7 z M 233,351.7 c -7.8,-4.7 -11.2,-8.1 -10.8,-12.1 1.2,-11.1 14.9,-9.6 22.5,-5.4 l 0.1,-7.5 c 0,0 -4.2,-1.8 -10.2,-1.9 -9.2,-0.1 -15.2,2.9 -18,9.1 -4.1,9.1 -0.4,16 12.7,23.6 7.4,4.3 10.6,8 10.6,12 0,8.4 -10.1,11.4 -20.6,6.1 -2.1,-1.1 -4,-2 -4.1,-2 -0.4,2.4 -0.2,8.1 -0.2,8.1 0,0 3.2,1.3 8,2.3 12,2.4 22.8,-3.2 23.9,-12.3 0.9,-8.5 -2.2,-13 -13.9,-20 z m 185.8,-10.4 c -4.2,0 -7.4,1.7 -9.5,5 l -1.7,2.6 v -6.8 h -7.2 V 383 h 7.2 v -13 c 0,-12 0.1,-13.4 1.8,-16.6 2.3,-4.5 6.3,-6.7 10.1,-5.6 l 2.6,0.7 v -7.1 z m -243,10.2 v -26.1 h -7.2 v 57.7 h 30.5 v -6.8 h -23.2 z m 167.7,8.1 -6,15.5 -5.7,-15.6 -5.8,-17.3 h -7.4 c 4.8,13.6 10,27.5 15.3,40.9 2.3,0.1 4.6,0 6.9,0 l 8.1,-20.3 8.2,-20.7 H 350 c -0.1,0.1 -3.2,8.3 -6.5,17.5 z M 192.6,309.7 c 1.2,0 2.1,-0.4 2.9,-1.2 0.8,-0.8 1.2,-1.7 1.2,-2.9 0,-1.2 -0.4,-2.1 -1.2,-2.9 -0.8,-0.7 -1.7,-1.1 -2.9,-1.1 -1.2,0 -2.2,0.4 -2.9,1.2 -0.8,0.8 -1.2,1.8 -1.2,2.9 0,1.2 0.4,2.2 1.2,2.9 0.7,0.7 1.7,1.1 2.9,1.1 z M 190,303 c 0.7,-0.7 1.5,-1 2.6,-1 1,0 1.9,0.3 2.6,1 0.7,0.7 1.1,1.5 1.1,2.6 0,1 -0.4,1.9 -1.1,2.6 -0.7,0.7 -1.6,1 -2.6,1 -1,0 -1.9,-0.3 -2.6,-1 -0.7,-0.7 -1.1,-1.6 -1.1,-2.6 0.1,-1 0.4,-1.9 1.1,-2.6 z m 1.7,3 h 0.5 c 0.3,0 0.7,0.3 0.9,0.9 l 0.6,1.3 h 0.9 l -0.7,-1.4 c -0.3,-0.6 -0.6,-0.9 -0.9,-1 0.4,-0.1 0.7,-0.2 1,-0.5 0.2,-0.2 0.3,-0.6 0.3,-0.9 0,-0.4 -0.1,-0.7 -0.4,-1 -0.3,-0.3 -0.8,-0.4 -1.5,-0.4 h -1.5 v 5.2 h 0.7 z m 0,-2.4 h 0.7 c 0.5,0 0.8,0.1 1,0.2 0.2,0.1 0.2,0.3 0.2,0.7 0,0.6 -0.4,0.9 -1.1,0.9 h -0.8 z M 72,305.5 c 0,-1.8 -0.1,-3.2 -0.1,-4 v 0 c 0.2,0.9 0.4,1.6 0.6,2.1 l 7,15.5 h 1.2 l 7,-15.7 c 0.2,-0.4 0.4,-1.1 0.6,-2 h 0.1 c -0.1,1.6 -0.2,2.9 -0.2,4 v 13.7 h 2.4 v -20.4 h -3 L 81.1,313 c -0.2,0.6 -0.6,1.4 -1,2.5 H 80 c -0.1,-0.6 -0.5,-1.4 -0.9,-2.4 l -6.3,-14.3 h -3.2 v 20.4 h 2.3 z m 23.7,0.1 h 2.1 v 12.7 h -2.1 z m 1,-4.7 c 0.4,0 0.8,-0.1 1.1,-0.4 0.3,-0.3 0.5,-0.6 0.5,-1.1 0,-0.4 -0.1,-0.8 -0.5,-1.1 -0.3,-0.3 -0.7,-0.4 -1.1,-0.4 -0.4,0 -0.8,0.1 -1.1,0.4 -0.3,0.3 -0.5,0.7 -0.5,1.1 0,0.5 0.1,0.8 0.5,1.1 0.3,0.3 0.7,0.4 1.1,0.4 z m 15.7,17.6 v -2.2 c -1.1,0.8 -2.3,1.3 -3.6,1.3 -1.5,0 -2.7,-0.5 -3.6,-1.5 -0.9,-1 -1.4,-2.3 -1.4,-4 0,-1.8 0.5,-3.2 1.4,-4.2 0.9,-1 2.2,-1.5 3.6,-1.5 1.2,0 2.4,0.4 3.5,1.1 V 305 c -1,-0.5 -2.1,-0.7 -3.4,-0.7 -2.3,0 -4.2,0.7 -5.5,2.2 -1.3,1.4 -2,3.4 -2,5.8 0,2.1 0.6,3.9 1.9,5.2 1.3,1.4 3,2.1 5,2.1 1.7,-0.1 3,-0.4 4.1,-1.1 z m 5.9,-6.7 c 0,-1.7 0.4,-3 1.1,-4 0.7,-0.8 1.4,-1.3 2.4,-1.3 0.8,0 1.4,0.1 1.8,0.5 v -2.4 c -0.3,-0.1 -0.8,-0.2 -1.4,-0.2 -0.8,0 -1.6,0.3 -2.2,0.8 -0.7,0.6 -1.3,1.4 -1.6,2.5 h -0.1 v -3 H 116 v 14.6 h 2.3 z m 13.4,7.7 c 2.2,0 4,-0.7 5.3,-2.1 1.3,-1.4 2,-3.3 2,-5.6 0,-2.4 -0.6,-4.2 -1.8,-5.6 -1.2,-1.4 -2.9,-2 -5.1,-2 -2.2,0 -4,0.7 -5.3,1.9 -1.4,1.4 -2.1,3.4 -2.1,5.9 0,2.2 0.6,4 1.9,5.4 1.2,1.4 2.9,2.1 5.1,2.1 z m -3.3,-11.8 c 0.9,-0.9 2.1,-1.4 3.5,-1.4 1.5,0 2.6,0.5 3.5,1.4 0.8,1 1.3,2.4 1.3,4.2 0,1.8 -0.4,3.2 -1.2,4.1 -0.8,1 -2,1.5 -3.5,1.5 -1.5,0 -2.7,-0.5 -3.6,-1.5 -0.9,-1 -1.3,-2.3 -1.3,-4.1 -0.1,-1.8 0.3,-3.2 1.3,-4.2 z m 20.7,10.6 c 0.9,-0.8 1.4,-1.8 1.4,-3 0,-1.1 -0.4,-2 -1.1,-2.7 -0.6,-0.6 -1.4,-1.1 -2.7,-1.6 -1.1,-0.5 -1.8,-0.9 -2.2,-1.2 -0.4,-0.4 -0.6,-0.8 -0.6,-1.5 0,-0.6 0.2,-1.1 0.7,-1.4 0.5,-0.4 1.1,-0.6 1.9,-0.6 1.3,0 2.3,0.3 3.3,1 V 305 c -0.9,-0.5 -2,-0.7 -3.1,-0.7 -1.5,0 -2.8,0.4 -3.7,1.2 -1,0.8 -1.4,1.8 -1.4,3 0,1.1 0.3,2 0.9,2.6 0.5,0.6 1.4,1.1 2.6,1.6 1.2,0.5 2,1 2.4,1.4 0.4,0.4 0.6,0.8 0.6,1.4 0,1.4 -0.9,2.1 -2.8,2.1 -1.4,0 -2.7,-0.5 -3.8,-1.4 v 2.5 c 1,0.6 2.2,0.9 3.6,0.9 1.7,-0.1 3.1,-0.5 4,-1.3 z m 11.1,-14 c -2.2,0 -4,0.7 -5.3,1.9 -1.4,1.4 -2.1,3.4 -2.1,5.9 0,2.2 0.6,4 1.9,5.4 1.3,1.4 3,2.1 5.2,2.1 2.2,0 4,-0.7 5.3,-2.1 1.3,-1.4 2,-3.3 2,-5.6 0,-2.4 -0.6,-4.2 -1.8,-5.6 -1.3,-1.4 -3,-2 -5.2,-2 z m 4.6,7.6 c 0,1.8 -0.4,3.2 -1.2,4.1 -0.8,1 -2,1.5 -3.5,1.5 -1.5,0 -2.7,-0.5 -3.6,-1.5 -0.9,-1 -1.3,-2.3 -1.3,-4.1 0,-1.9 0.5,-3.3 1.4,-4.3 0.9,-0.9 2.1,-1.4 3.5,-1.4 1.4,0 2.6,0.5 3.4,1.4 0.9,1 1.3,2.4 1.3,4.3 z m 6.3,7.3 h 2.3 v -12.6 h 3.4 v -2 h -3.4 v -2.2 c 0,-2 0.8,-3.1 2.4,-3.1 0.6,0 1.1,0.1 1.5,0.4 v -2.1 c -0.4,-0.2 -1,-0.2 -1.7,-0.2 -1.3,0 -2.3,0.4 -3.1,1.2 -1,0.9 -1.5,2.1 -1.5,3.8 v 2.4 h -2.5 v 2 h 2.5 z m 9.6,-4 c 0,2.8 1.3,4.3 3.8,4.3 0.9,0 1.6,-0.1 2.2,-0.5 v -2 c -0.4,0.3 -0.9,0.5 -1.5,0.5 -0.8,0 -1.3,-0.2 -1.7,-0.6 -0.3,-0.4 -0.5,-1.1 -0.5,-2.1 v -8.2 h 3.7 v -2 H 183 v -4.3 c -0.8,0.3 -1.6,0.5 -2.3,0.7 v 3.5 h -2.5 v 2 h 2.5 z m 250.5,26.9 c -0.8,-0.7 -1.7,-1.1 -2.9,-1.1 -1.2,0 -2.2,0.4 -2.9,1.2 -0.8,0.8 -1.2,1.8 -1.2,2.9 0,1.2 0.4,2.1 1.2,2.9 0.8,0.7 1.8,1.1 2.9,1.1 1.2,0 2.1,-0.4 2.9,-1.2 0.8,-0.8 1.2,-1.7 1.2,-2.9 0.1,-1.2 -0.4,-2.2 -1.2,-2.9 z m -0.3,5.5 c -0.7,0.7 -1.5,1 -2.6,1 -1,0 -1.9,-0.3 -2.6,-1 -0.7,-0.7 -1.1,-1.6 -1.1,-2.6 0,-1 0.3,-1.9 1,-2.6 0.7,-0.7 1.5,-1 2.6,-1 1,0 1.9,0.3 2.6,1 0.7,0.7 1.1,1.6 1.1,2.6 0,1 -0.3,1.9 -1,2.6 z m -2.1,-2.4 c 0.4,-0.1 0.7,-0.3 1,-0.5 0.2,-0.2 0.3,-0.6 0.3,-0.9 0,-0.4 -0.1,-0.7 -0.4,-1 -0.3,-0.3 -0.8,-0.4 -1.5,-0.4 h -1.5 v 5.2 h 0.7 v -2.2 h 0.5 c 0.3,0 0.6,0.3 0.9,0.9 l 0.6,1.3 h 0.9 l -0.7,-1.4 c -0.3,-0.6 -0.6,-0.9 -0.8,-1 z m -0.5,-0.5 h -0.8 V 343 h 0.7 c 0.5,0 0.8,0.1 1,0.2 0.2,0.1 0.2,0.3 0.2,0.7 -0.1,0.6 -0.4,0.8 -1.1,0.8 z M 298,304 h 0.7 v -5.2 h 1.7 v -0.7 h -4.1 v 0.7 h 1.7 z m 3.9,-3.9 c 0,-0.5 0,-0.9 0,-1.2 0,0.3 0.1,0.5 0.2,0.6 l 2,4.5 h 0.3 l 2,-4.5 c 0.1,-0.1 0.1,-0.3 0.2,-0.6 0,0.5 0,0.8 0,1.1 v 4 h 0.7 v -5.9 h -0.8 l -1.8,4.1 c 0,0.1 -0.2,0.4 -0.3,0.8 h -0.1 c 0,-0.2 -0.1,-0.4 -0.3,-0.7 l -1.8,-4.1 h -0.9 v 5.9 h 0.7 z"
   class="st3" />
</g>
</svg>
