<?xml version="1.0" encoding="UTF-8" standalone="no"?>
<svg
   xmlns:dc="http://purl.org/dc/elements/1.1/"
   xmlns:cc="http://creativecommons.org/ns#"
   xmlns:rdf="http://www.w3.org/1999/02/22-rdf-syntax-ns#"
   xmlns:svg="http://www.w3.org/2000/svg"
   xmlns="http://www.w3.org/2000/svg"
   id="svg18"
   version="1.1"
   width="200"
   viewBox="0.412 0.65 40.92368 40.555659"
   preserveAspectRatio="xMinYMin meet"
   height="200">
  <metadata
     id="metadata24">
    <rdf:RDF>
      <cc:Work
         rdf:about="">
        <dc:format>image/svg+xml</dc:format>
        <dc:type
           rdf:resource="http://purl.org/dc/dcmitype/StillImage" />
        <dc:title></dc:title>
      </cc:Work>
    </rdf:RDF>
  </metadata>
  <defs
     id="defs22" />
  <path
     style="stroke-width:0.0730575"
     id="path2"
     fill="#cccccc"
     d="m 11.818175,22.32423 v -3.849396 h 0.49796 l 2.355591,3.100923 v -3.10085 h 0.470855 v 3.849323 h -0.497887 l -2.355371,-3.128173 v 3.128173 z m 7.146771,-0.15079 c -0.310348,0.118645 -0.645244,0.177748 -1.004102,0.177748 -1.394155,0 -2.091561,-0.668475 -2.091561,-2.005426 0,-1.265209 0.673005,-1.897886 2.018723,-1.897886 0.386108,0 0.745113,0.05399 1.076867,0.161822 v 0.4306 C 18.633046,18.91464 18.291868,18.85181 17.941849,18.85181 c -1.049689,0 -1.574387,0.498106 -1.574387,1.493952 0,1.067661 0.516515,1.601784 1.550497,1.601784 0.164891,0 0.3479,-0.02162 0.549027,-0.06487 v -1.308093 h 0.49796 z m 0.794207,-1.335125 v -2.363262 h 0.497521 v 2.363189 c 0,0.739341 0.368063,1.10945 1.103898,1.10945 0.735688,0 1.103752,-0.370109 1.103752,-1.10945 v -2.363189 h 0.497886 v 2.363189 c 0,1.008923 -0.533831,1.513093 -1.601565,1.513093 -1.067734,0 -1.601565,-0.504097 -1.601565,-1.51302 z m 4.589249,-2.363481 v 3.445754 h 2.013901 v 0.403642 h -2.511568 v -3.849396 z m 2.732347,3.849469 h -0.516735 l 1.913813,-4.357145 1.913812,4.357145 h -0.551656 l -0.498252,-1.211511 h -1.272806 l 0.137128,-0.403277 h 0.969107 l -0.718739,-1.744612 z m 3.835882,-7.3e-5 v -3.849396 h 1.642038 c 0.732328,0 1.098346,0.307937 1.098346,0.9233 0,0.500808 -0.357836,0.871429 -1.074018,1.111642 l 1.32161,1.814454 H 33.24782 l -1.224588,-1.730731 v -0.32547 c 0.735615,-0.116965 1.103386,-0.399625 1.103386,-0.848051 0,-0.355205 -0.204561,-0.533173 -0.613463,-0.533173 H 31.41459 v 3.437571 h -0.497959 z m 4.85357,-3.849396 v 2.740384 c 0,0.739341 -0.435276,1.109012 -1.305756,1.109012 v -0.403788 c 0.538434,0 0.807724,-0.235318 0.807724,-0.705224 v -2.740384 z m 0.888305,3.714751 v -0.457632 c 0.403862,0.143485 0.839795,0.21552 1.30824,0.21552 0.662193,0 0.993435,-0.242259 0.993435,-0.727214 0,-0.412044 -0.244305,-0.618942 -0.732328,-0.618942 h -0.495475 c -0.805605,0 -1.208736,-0.349726 -1.208736,-1.04969 0,-0.735688 0.516224,-1.103897 1.548306,-1.103897 0.4485,0 0.865731,0.05428 1.25162,0.161822 v 0.457632 c -0.386035,-0.143704 -0.80312,-0.21552 -1.25162,-0.21552 -0.699963,0 -1.049835,0.233419 -1.049835,0.699963 0,0.412556 0.236706,0.619016 0.710265,0.619016 h 0.495475 c 0.81985,0 1.230287,0.350164 1.230287,1.049616 0,0.753953 -0.497082,1.130929 -1.491467,1.130929 -0.468299,0 -0.904305,-0.05406 -1.308167,-0.161603 z" />
  <path
     style="stroke-width:0.0730575"
     id="path4"
     d="m 11.944199,22.198498 v -3.849396 h 0.497887 l 2.355371,3.100996 v -3.100996 h 0.471148 v 3.849396 h -0.497959 l -2.355519,-3.128246 v 3.128173 h -0.470928 z m 7.146697,-0.150791 c -0.310347,0.118646 -0.645023,0.177676 -1.004028,0.177676 -1.394301,0 -2.091561,-0.668329 -2.091561,-2.005426 0,-1.265136 0.673005,-1.897886 2.019015,-1.897886 0.385743,0 0.744821,0.05406 1.076574,0.161749 v 0.4306 c -0.331826,-0.125658 -0.673005,-0.188488 -1.022803,-0.188488 -1.04969,0 -1.574534,0.498179 -1.574534,1.494025 0,1.067661 0.516735,1.601784 1.550425,1.601784 0.164963,0 0.348191,-0.02155 0.549246,-0.06487 v -1.308166 h 0.49774 z m 0.794135,-1.33527 v -2.363554 h 0.497594 v 2.363554 c 0,0.739341 0.368063,1.109158 1.103898,1.109158 0.735688,0 1.103679,-0.369963 1.103679,-1.109158 v -2.363554 h 0.497886 v 2.363554 c 0,1.00885 -0.533831,1.5128 -1.601492,1.5128 -1.067735,0 -1.601565,-0.503877 -1.601565,-1.5128 z m 4.589395,-2.363554 v 3.445754 h 2.013609 v 0.403642 h -2.511349 v -3.849396 z m 2.732275,3.849542 h -0.516736 l 1.913886,-4.357437 1.913813,4.357437 h -0.552022 l -0.497886,-1.211438 h -1.273172 l 0.137493,-0.403643 h 0.968815 l -0.71852,-1.744611 z m 3.83588,7.3e-5 v -3.849396 h 1.642039 c 0.732328,0 1.098054,0.307718 1.098054,0.9233 0,0.500589 -0.357617,0.871429 -1.073726,1.111569 l 1.321609,1.814527 h -0.657078 l -1.224443,-1.730877 v -0.325763 c 0.735688,-0.116892 1.103679,-0.399259 1.103679,-0.84805 0,-0.355132 -0.20478,-0.532808 -0.613901,-0.532808 h -1.098273 v 3.437498 z" />
  <path
     style="stroke-width:0.0730575"
     id="path6"
     fill="#a6120d"
     d="m 35.896079,18.348883 v 2.740457 c 0,0.739561 -0.43513,1.108939 -1.305609,1.108939 v -0.403715 c 0.538433,0 0.80765,-0.235465 0.80765,-0.70537 V 18.34881 h 0.498032 z m 0.888159,3.714751 v -0.457559 c 0.404008,0.143485 0.839869,0.21552 1.308313,0.21552 0.662192,0 0.993362,-0.242405 0.993362,-0.726995 0,-0.412336 -0.244231,-0.619015 -0.732328,-0.619015 H 37.85811 c -0.805532,0 -1.208663,-0.349945 -1.208663,-1.049909 0,-0.735688 0.516005,-1.103897 1.548307,-1.103897 0.448426,0 0.86573,0.05436 1.25162,0.161895 v 0.457632 c -0.386109,-0.143777 -0.803194,-0.21552 -1.25162,-0.21552 -0.700037,0 -1.049909,0.233346 -1.049909,0.69989 0,0.412629 0.23656,0.619016 0.710265,0.619016 h 0.495475 c 0.819851,0 1.230287,0.350018 1.230287,1.049835 0,0.75388 -0.49701,1.13071 -1.491394,1.13071 -0.468298,0 -0.904305,-0.05406 -1.30824,-0.161603 z" />
  <path
     style="stroke-width:0.0730575"
     id="path8"
     fill="#b3b3b3"
     d="m 6.7072964,15.384577 -4.4956623,1.582132 0.7104835,5.890037 3.7900005,2.083086 3.8095069,-2.111359 0.710118,-5.889745 -4.5243736,-1.554224 z" />
  <path
     style="stroke-width:0.0730575"
     id="path10"
     fill="#a6120d"
     d="M 10.783317,17.279103 6.6969222,15.885532 v 8.556633 l 3.4247138,-1.895402 0.661827,-5.26766 z" />
  <path
     style="stroke-width:0.0730575"
     id="path12"
     fill="#dd1b16"
     d="m 2.7161687,17.304235 0.6087146,5.26766 3.3718928,1.87027 v -8.556779 l -3.9806074,1.418776 z" />
  <path
     style="stroke-width:0.0730575"
     id="path14"
     fill="#f2f2f2"
     d="M 7.8217145,20.44059 6.6968491,20.966604 H 5.5112 L 4.9539179,22.360612 3.917233,22.379827 6.6968491,16.196246 Z M 7.7129319,20.17583 6.704301,18.178878 5.8769256,20.14142 h 0.8198505 l 1.0162289,0.03434 z" />
  <path
     style="stroke-width:0.0730575"
     id="path16"
     fill="#b3b3b3"
     d="m 6.6967761,16.196246 0.00745,1.982632 0.938788,1.964076 H 6.6988947 l -0.00219,0.822408 1.3056094,0.0012 0.6101757,1.413443 0.9919005,0.01841 -2.9076872,-6.202173 z" />
</svg>
