<?xml version="1.0" encoding="UTF-8" standalone="no"?>
<svg
   xmlns:dc="http://purl.org/dc/elements/1.1/"
   xmlns:cc="http://creativecommons.org/ns#"
   xmlns:rdf="http://www.w3.org/1999/02/22-rdf-syntax-ns#"
   xmlns:svg="http://www.w3.org/2000/svg"
   xmlns="http://www.w3.org/2000/svg"
   xmlns:sodipodi="http://sodipodi.sourceforge.net/DTD/sodipodi-0.dtd"
   xmlns:inkscape="http://www.inkscape.org/namespaces/inkscape"
   inkscape:version="1.0 (4035a4fb49, 2020-05-01)"
   sodipodi:docname="azure-devops_200x200.svg"
   width="200"
   height="200"
   viewBox="0 0 52.916665 52.916668"
   version="1.1"
   id="svg8">
  <sodipodi:namedview
     inkscape:current-layer="svg8"
     inkscape:window-maximized="1"
     inkscape:window-y="-8"
     inkscape:window-x="-8"
     inkscape:cy="7.1785068"
     inkscape:cx="53.214429"
     inkscape:zoom="1.0625"
     showgrid="false"
     id="namedview7"
     inkscape:window-height="1017"
     inkscape:window-width="1920"
     inkscape:pageshadow="2"
     inkscape:pageopacity="0"
     guidetolerance="10"
     gridtolerance="10"
     objecttolerance="10"
     borderopacity="1"
     bordercolor="#666666"
     pagecolor="#ffffff" />
  <defs
     id="defs2" />
  <metadata
     id="metadata5">
    <rdf:RDF>
      <cc:Work
         rdf:about="">
        <dc:format>image/svg+xml</dc:format>
        <dc:type
           rdf:resource="http://purl.org/dc/dcmitype/StillImage" />
        <dc:title />
      </cc:Work>
    </rdf:RDF>
  </metadata>
  <g
     transform="matrix(0.85139319,0,0,0.85139319,3.9318885,3.9318885)"
     id="layer1">
    <path
       style="fill:#0078d4;fill-opacity:1;stroke-width:0.0948505"
       d="m 44.290251,45.366545 v -2.560963 h 0.379404 c 0.374203,0 0.379402,0.0048 0.379402,0.350579 v 0.350588 l 0.323857,-0.313899 c 0.553272,-0.536247 1.583524,-0.527355 2.205842,0.019 0.436391,0.383154 0.600371,0.777366 0.600371,1.443278 0,0.884146 -0.323097,1.457081 -0.995933,1.76605 -0.643827,0.29564 -1.400335,0.170734 -1.91943,-0.31693 l -0.214707,-0.201704 v 1.012463 1.012462 h -0.379402 -0.379404 z m 2.564071,0.425229 c 0.806388,-0.417002 0.767317,-1.880363 -0.0607,-2.273283 -1.099802,-0.521892 -2.144533,0.644556 -1.601758,1.788365 0.27398,0.577372 1.04741,0.802969 1.662454,0.484918 z m -45.5314055,0.73606 c 0,-0.03943 0.4818229,-1.159893 1.0707174,-2.489826 l 1.0707175,-2.418064 h 0.4177777 0.4177767 l 1.066642,2.418691 c 0.5866535,1.330285 1.0692649,2.450705 1.0724721,2.489836 0.00323,0.03914 -0.1644754,0.07115 -0.3726271,0.07115 -0.3740644,0 -0.3817185,-0.0076 -0.6592696,-0.619315 l -0.2808105,-0.619314 -1.2614565,0.02651 -1.2614566,0.02651 -0.2813026,0.592819 c -0.2719926,0.573192 -0.2931833,0.592819 -0.640242,0.592819 -0.1974167,0 -0.3589385,-0.0323 -0.3589385,-0.07173 z m 3.5094738,-1.863358 c 0,-0.08322 -0.8778275,-2.10103 -0.9454751,-2.173353 -0.039776,-0.04256 -0.1383124,0.0855 -0.2189589,0.284553 -0.080646,0.199035 -0.2981917,0.71402 -0.4834331,1.144399 L 2.8477216,44.70259 h 0.9923339 c 0.5457845,0 0.9923348,-0.0171 0.9923348,-0.03809 z m 2.086713,1.644725 c 0,-0.232398 0.2191261,-0.549708 1.0971436,-1.588751 l 1.0971427,-1.298337 -1.0971427,-0.0267 -1.0971436,-0.02669 v -0.281542 -0.281542 h 1.5650357 1.565035 v 0.232997 c 0,0.159572 -0.3437682,0.637241 -1.0907817,1.515668 -0.5999307,0.70547 -1.0907824,1.304882 -1.0907824,1.332033 0,0.02717 0.4908517,0.0494 1.0907824,0.0494 h 1.0907817 v 0.331978 0.331977 H 8.484139 6.9191033 Z m 4.7457587,0.12427 C 11.070743,46.133765 10.955956,45.791784 10.91673,44.204628 l -0.03458,-1.399046 h 0.382392 0.382391 l 0.03106,1.273133 c 0.02916,1.195385 0.04511,1.288067 0.26101,1.517606 0.183702,0.195311 0.319429,0.244483 0.674876,0.244483 0.88307,0 1.133061,-0.454822 1.133935,-2.063001 l 5.38e-4,-0.972221 h 0.379403 0.379402 v 1.897008 1.897017 H 14.12776 13.748357 v -0.379402 c 0,-0.208667 -0.0241,-0.379401 -0.05355,-0.379401 -0.02945,0 -0.160244,0.126796 -0.290649,0.281779 -0.38971,0.463135 -1.163351,0.601426 -1.73929,0.310888 z m 4.075351,-1.730881 v -1.897008 h 0.379402 0.379403 l 0.0031,0.403114 0.0031,0.403113 0.197047,-0.237129 c 0.272374,-0.327769 0.656974,-0.56773 0.911136,-0.56848 0.177771,-3.52e-4 0.21333,0.05083 0.212916,0.307648 -4.66e-4,0.283347 -0.03631,0.31976 -0.4436,0.450537 -0.721408,0.231639 -0.830321,0.464085 -0.869852,1.856471 l -0.03347,1.178751 h -0.36965 -0.369649 z m 3.87395,1.804563 c -0.795606,-0.24035 -1.235123,-0.792338 -1.295497,-1.626999 -0.07169,-0.991049 0.355713,-1.711596 1.175788,-1.982241 0.48544,-0.160208 1.404413,-0.07686 1.724657,0.156493 0.37825,0.275576 0.686393,0.93936 0.686393,1.47858 v 0.454157 h -1.42276 c -1.556691,0 -1.608905,0.02232 -1.217133,0.520382 0.412983,0.525027 1.158246,0.629147 1.810344,0.252928 0.246035,-0.141949 0.272911,-0.139042 0.461954,0.04997 l 0.20072,0.200716 -0.249402,0.163419 c -0.574403,0.376361 -1.302581,0.505514 -1.875064,0.332566 z m 1.627386,-2.333533 c 0,-0.143687 -0.114272,-0.358691 -0.277256,-0.521683 -0.556692,-0.55669 -1.623027,-0.284563 -1.890404,0.482439 l -0.09889,0.28367 h 1.133274 1.133273 z m 3.509472,-0.07543 v -2.525698 h 1.215845 c 1.440638,0 1.988139,0.133484 2.561881,0.624587 0.607373,0.519887 0.815681,0.988532 0.819417,1.843494 0.0038,0.876764 -0.276153,1.499556 -0.88183,1.961512 -0.560285,0.427348 -0.921916,0.512991 -2.411114,0.570998 l -1.304199,0.05083 z m 2.984993,1.526166 c 1.203656,-0.68173 1.15753,-2.529119 -0.07912,-3.168621 C 27.474483,42.3614 27.02275,42.284773 26.482566,42.25652 l -0.87789,-0.04588 v 1.815089 1.815089 l 0.87737,-0.0019 c 0.733009,-0.0019 0.939331,-0.03667 1.253968,-0.214861 z m 3.653939,0.886597 c -1.031818,-0.313861 -1.543118,-1.216561 -1.310584,-2.31383 0.195378,-0.921927 0.992303,-1.451163 2.068007,-1.373348 0.935076,0.06764 1.400938,0.564091 1.494171,1.592295 l 0.05133,0.566095 -1.478426,0.02613 -1.478422,0.02613 0.155929,0.321718 c 0.303896,0.627009 1.390395,0.840778 1.95064,0.38379 0.20069,-0.163704 0.215145,-0.162735 0.419513,0.02793 l 0.211664,0.197439 -0.302591,0.22325 c -0.501074,0.369683 -1.206113,0.497249 -1.781233,0.322306 z m 1.613075,-2.230752 c 0,-0.709992 -0.96635,-1.146432 -1.699234,-0.767448 -0.221816,0.114703 -0.577184,0.637089 -0.577184,0.848454 0,0.03126 0.512193,0.05681 1.138211,0.05681 0.932122,0 1.138207,-0.02499 1.138207,-0.137816 z m 1.804889,0.54093 c -0.379147,-0.978149 -0.710166,-1.831809 -0.735593,-1.897017 -0.0323,-0.08284 0.06846,-0.11856 0.334346,-0.11856 h 0.380576 l 0.296432,0.829939 c 0.705424,1.975031 0.793588,2.20817 0.823654,2.178112 0.01746,-0.01748 0.2622,-0.690726 0.543906,-1.496174 l 0.512189,-1.464453 0.343643,-0.02945 c 0.189,-0.01625 0.344104,0.0047 0.344674,0.0474 7.17e-4,0.04227 -0.308883,0.897911 -0.687668,1.901415 l -0.688702,1.824542 -0.389049,0.0019 -0.389049,0.0019 -0.689359,-1.778448 z m 4.976197,1.613812 c -1.325674,-0.474639 -2.008368,-1.762582 -1.626321,-3.068158 0.190627,-0.651443 0.569089,-1.108336 1.213928,-1.465508 0.452103,-0.25041 0.596657,-0.281228 1.314208,-0.280221 0.904511,0.0019 1.340766,0.168587 1.901401,0.729229 0.65402,0.654018 0.89431,1.822784 0.543537,2.643727 -0.523264,1.224654 -2.079471,1.89467 -3.346753,1.440931 z m 1.784598,-0.760465 c 0.155506,-0.0911 0.415308,-0.329707 0.577345,-0.530176 0.268804,-0.332576 0.294608,-0.424555 0.294608,-1.050311 0,-0.85366 -0.242171,-1.270026 -0.943418,-1.622039 -0.771135,-0.387087 -1.535899,-0.269724 -2.13294,0.327313 -0.989699,0.989691 -0.548684,2.604881 0.832441,3.048768 0.348158,0.111901 1.032595,0.02527 1.371964,-0.173555 z m 8.032562,0.836475 c -0.284255,-0.08645 -0.853043,-0.373863 -0.853043,-0.431025 0,-0.02233 0.04757,-0.144922 0.105701,-0.272517 l 0.105701,-0.23199 0.304448,0.179626 c 0.455039,0.26848 1.131469,0.336547 1.426083,0.143507 0.504776,-0.330733 0.249595,-0.680067 -0.731503,-1.001395 -0.752978,-0.24662 -1.020727,-0.524552 -1.020727,-1.059544 0,-0.267948 0.0724,-0.446139 0.27204,-0.669589 0.244455,-0.27359 0.336257,-0.30855 0.905203,-0.344783 0.448428,-0.0285 0.756096,0.0067 1.054511,0.120602 l 0.421356,0.160911 -0.140869,0.272413 c -0.138388,0.267615 -0.146652,0.26999 -0.469853,0.134947 -0.39895,-0.166687 -1.108301,-0.179949 -1.264614,-0.02365 -0.321616,0.321613 -0.05673,0.598282 0.882109,0.92131 0.72386,0.249062 0.995933,0.546953 0.995933,1.090448 0,0.297797 -0.06078,0.473271 -0.225487,0.650997 -0.35208,0.379896 -1.159975,0.544369 -1.766989,0.359727 z m -23.048089,-11.528374 -6.023016,-2.120143 -0.02554,2.082609 -0.02554,2.082618 -3.863338,-4.617674 C 14.490918,29.870268 12.53162,27.528775 12.261759,27.206668 l -0.490657,-0.585656 0.538082,0.08056 c 0.295946,0.04437 5.012752,0.76208 10.481791,1.595002 5.469038,0.832922 9.982743,1.514405 10.030454,1.514405 0.0518,0 0.08674,-3.513062 0.08674,-8.71987 0,-8.222704 0.0095,-8.722662 0.165988,-8.768932 0.206685,-0.0611 7.308314,-1.386473 7.429022,-1.386473 0.05339,0 0.08789,3.828657 0.08789,9.75195 v 9.75194 l -3.90036,3.313733 c -2.145197,1.822546 -3.948544,3.321741 -4.007436,3.331545 -0.0589,0.0098 -2.817439,-0.936244 -6.130096,-2.102331 z M 9.859473,26.249362 c -0.7564337,-0.121315 -1.3860044,-0.223221 -1.3990469,-0.22647 -0.013044,-0.0028 -0.023664,-2.044001 -0.023598,-4.535025 l 9.5e-5,-4.529115 1.6360579,-2.120332 1.636058,-2.120339 4.173428,-1.649045 c 2.295385,-0.906977 4.780714,-1.8892989 5.522953,-2.1829401 l 1.349545,-0.5338924 0.02581,-1.6815029 0.02581,-1.6815038 4.884809,3.5986494 c 2.686643,1.9792568 4.895225,3.6266778 4.907957,3.6609388 0.01273,0.03428 -4.468956,0.889455 -9.959314,1.900434 -5.490359,1.010983 -10.206554,1.881202 -10.480435,1.933823 l -0.497967,0.09567 v 5.156268 5.156258 l -0.213413,-0.01064 c -0.117378,-0.0057 -0.832314,-0.109915 -1.5887482,-0.23123 z"
       id="path24" />
  </g>
</svg>
