<?xml version="1.0" encoding="UTF-8" standalone="no"?>
<svg
   xmlns:dc="http://purl.org/dc/elements/1.1/"
   xmlns:cc="http://creativecommons.org/ns#"
   xmlns:rdf="http://www.w3.org/1999/02/22-rdf-syntax-ns#"
   xmlns:svg="http://www.w3.org/2000/svg"
   xmlns="http://www.w3.org/2000/svg"
   id="svg14"
   version="1.1"
   width="200"
   viewBox="0 0 200 200"
   height="200"
   fill="none">
  <metadata
     id="metadata20">
    <rdf:RDF>
      <cc:Work
         rdf:about="">
        <dc:format>image/svg+xml</dc:format>
        <dc:type
           rdf:resource="http://purl.org/dc/dcmitype/StillImage" />
        <dc:title></dc:title>
      </cc:Work>
    </rdf:RDF>
  </metadata>
  <defs
     id="defs18" />
  <g
     transform="translate(10.28556,-1.9999988)"
     id="g851">
    <path
       d="m 173.24816,151.99955 c 1.345,-2.41572 2.18072,-5.13715 2.18072,-7.58144 V 59.580817 c 0,-2.444076 -0.835,-5.165152 -2.18072,-7.580728 L 89.714439,102.00018 Z"
       fill="#7f3a86"
       id="path2"
       style="stroke-width:7.14287" />
    <path
       d="m 97.139452,200.16678 70.868698,-42.41864 c 2.04143,-1.22215 3.89715,-3.33215 5.24215,-5.74787 L 89.716582,102.00018 6.1832896,152.00027 c 1.3451453,2.41572 3.2011486,4.52643 5.2420804,5.74787 l 70.868341,42.41864 c 4.08215,2.44429 10.763591,2.44429 14.845741,0 z"
       fill="#662579"
       id="path4"
       style="stroke-width:7.14287" />
    <path
       d="m 173.24816,51.999804 c -1.345,-2.416148 -3.20143,-4.526223 -5.24215,-5.748225 L 97.137309,3.8330033 c -4.08215,-2.4440044 -10.76359,-2.4440044 -14.845741,0 L 11.423013,46.251579 C 7.3400774,48.695012 4,54.693594 4,59.580817 v 84.838013 c 0,2.44357 0.8352872,5.16572 2.1809325,7.58144 L 89.714439,102.00018 Z"
       fill="#9a5196"
       id="path6"
       style="stroke-width:7.14287" />
    <g
       fill="#ffffff"
       id="g12"
       transform="matrix(7.1428699,0,0,7.1428699,-24.57148,-12.28574)">
      <path
         d="M 16.0385,24 C 11.6061,24 8,20.4112 8,16 c 0,-4.4112 3.6061,-8 8.0385,-8 2.8073,0 5.4289,1.47569 6.8805,3.8618 l -3.4425,2.0647 C 18.7492,12.736 17.4399,12 16.0385,12 c -2.2163,0 -4.0192,1.7944 -4.0192,4 0,2.2056 1.8029,4 4.0192,4 1.3977,0 2.7036,-0.7319 3.4322,-1.9168 l 3.4498,2.0527 C 21.4692,22.5234 18.8467,24 16.0385,24 Z"
         id="path8" />
      <path
         clip-rule="evenodd"
         d="m 25.0001,13 v 0.9974 H 22.9999 V 13 h -0.9998 v 0.9974 H 21 V 15 h 1.0001 v 1.9948 H 21 V 18 h 1.0001 v 1 h 0.9998 L 23,18 h 2.0001 v 1 h 0.9998 V 18 H 27 V 17 H 25.9999 V 15 H 27 V 13.9974 H 25.9999 V 13 Z m 0,4 v -2 h -2.0002 v 1.9948 z"
         fill-rule="evenodd"
         id="path10" />
    </g>
  </g>
</svg>
