<?xml version="1.0" encoding="UTF-8" standalone="no"?>
<svg
   xmlns:dc="http://purl.org/dc/elements/1.1/"
   xmlns:cc="http://creativecommons.org/ns#"
   xmlns:rdf="http://www.w3.org/1999/02/22-rdf-syntax-ns#"
   xmlns:svg="http://www.w3.org/2000/svg"
   xmlns="http://www.w3.org/2000/svg"
   xmlns:sodipodi="http://sodipodi.sourceforge.net/DTD/sodipodi-0.dtd"
   xmlns:inkscape="http://www.inkscape.org/namespaces/inkscape"
   inkscape:version="1.0 (4035a4fb49, 2020-05-01)"
   sodipodi:docname="css_200x200.svg"
   width="200"
   height="200"
   viewBox="0 0 52.916665 52.916668"
   version="1.1"
   id="svg56">
  <sodipodi:namedview
     inkscape:current-layer="svg56"
     inkscape:window-maximized="1"
     inkscape:window-y="-8"
     inkscape:window-x="-8"
     inkscape:cy="123.58978"
     inkscape:cx="199.2203"
     inkscape:zoom="1.5026019"
     showgrid="false"
     id="namedview9"
     inkscape:window-height="1017"
     inkscape:window-width="1920"
     inkscape:pageshadow="2"
     inkscape:pageopacity="0"
     guidetolerance="10"
     gridtolerance="10"
     objecttolerance="10"
     borderopacity="1"
     bordercolor="#666666"
     pagecolor="#ffffff" />
  <defs
     id="defs50" />
  <metadata
     id="metadata53">
    <rdf:RDF>
      <cc:Work
         rdf:about="">
        <dc:format>image/svg+xml</dc:format>
        <dc:type
           rdf:resource="http://purl.org/dc/dcmitype/StillImage" />
        <dc:title />
      </cc:Work>
    </rdf:RDF>
  </metadata>
  <g
     transform="matrix(0.84027706,0,0,0.84027706,4.2260029,4.2260029)"
     id="layer1">
    <g
       id="g85"
       transform="matrix(0.62620658,0,0,0.62620658,-0.06211835,10.858846)">
      <path
         d="m 27.113586,39.161523 c -4.677543,-0.687578 -7.95103,-2.91424 -10.430455,-7.094908 -3.985225,-6.719668 -1.28204,-16.030012 5.71843,-19.69549 4.521888,-2.367682 8.847725,-2.5565423 12.917135,-0.563947 1.696548,0.830719 4.412948,3.207203 5.563259,4.867099 l 0.773454,1.116095 -0.720961,0.574873 c -0.396526,0.31618 -1.359175,0.961673 -2.139217,1.434427 l -1.418259,0.859555 -1.689007,-1.687988 c -2.083721,-2.082464 -3.619939,-2.702398 -6.624744,-2.673386 -2.458465,0.02374 -4.40733,0.856714 -5.918895,2.529836 -2.384129,2.638946 -3.198799,6.733077 -1.902989,9.563496 0.894227,1.953249 2.239531,3.369929 4.219955,4.443844 1.555481,0.843483 1.814627,0.8993 4.17204,0.898615 3.014618,-7.94e-4 4.101613,-0.466024 6.263347,-2.680206 l 1.388604,-1.422294 2.12715,1.350492 c 1.169932,0.74277 2.127149,1.445575 2.127149,1.56179 0,0.116216 -0.845304,1.116441 -1.878454,2.222728 -3.385624,3.625294 -7.642347,5.116411 -12.547542,4.395369 z m 21.926132,-1.32221 c -2.36936,-0.62112 -3.696113,-1.298115 -4.758537,-2.428108 -1.155372,-1.228857 -1.702908,-2.422737 -1.874763,-4.087852 l -0.147119,-1.425437 h 2.780757 2.780755 l 0.327446,1.169524 c 0.586415,2.094466 2.351532,3.325442 4.768408,3.325442 3.499069,0 5.541764,-2.70343 3.585522,-4.745307 -0.903242,-0.942779 -2.232932,-1.593871 -5.203163,-2.54776 -2.942749,-0.945065 -4.531183,-1.768064 -5.967167,-3.091707 -1.672648,-1.541794 -2.042244,-2.367674 -2.041231,-4.561234 0.0013,-3.062231 1.62016,-5.248677 4.842544,-6.540844 2.10343,-0.843469 6.623542,-0.838544 8.77324,0.0096 2.720292,1.073216 4.506047,3.113545 4.904176,5.60331 l 0.176691,1.104958 -2.550932,-0.08587 c -1.403012,-0.04723 -2.55093,-0.188119 -2.55093,-0.313089 0,-0.651748 -0.984644,-2.151018 -1.698614,-2.586396 -1.008941,-0.61525 -3.798211,-0.680059 -4.893429,-0.113699 -0.897218,0.463969 -1.685658,1.999495 -1.4693,2.861535 0.366918,1.461919 1.196583,2.01964 4.80801,3.232056 4.135213,1.388259 5.805215,2.194485 7.250742,3.500432 2.397374,2.165883 2.737882,4.59516 1.092597,7.794848 -0.847092,1.647388 -1.206465,2.061953 -2.411849,2.78225 -2.730283,1.631521 -6.923791,2.087136 -10.523854,1.143389 z m 22.741341,0.233778 c -2.43932,-0.407012 -4.69892,-1.485601 -5.97881,-2.853905 -1.265278,-1.352685 -1.718104,-2.406266 -1.832205,-4.262937 l -0.07317,-1.190625 2.844271,-0.0751 c 2.699147,-0.07127 2.84427,-0.04791 2.84427,0.457666 0,0.950645 0.836415,2.654485 1.553875,3.165361 1.07914,0.768416 2.841238,1.146075 4.367799,0.936117 1.694953,-0.233116 3.338743,-1.691436 3.338743,-2.962029 0,-1.690391 -1.463575,-2.763573 -5.688542,-4.17119 -1.600729,-0.53331 -3.486602,-1.281459 -4.19083,-1.662555 -1.614305,-0.873587 -3.751416,-3.18648 -3.974375,-4.301275 -0.364151,-1.820765 -0.18328,-3.338103 0.569743,-4.779552 1.397249,-2.674644 4.449067,-4.20488 8.374441,-4.199097 3.272816,0.0048 5.510029,0.733901 7.43305,2.422333 1.129213,0.991463 1.651114,1.937093 1.948939,3.531275 l 0.221756,1.187002 h -2.578603 -2.5786 L 78.222709,18.514065 C 77.69908,15.89593 73.331598,14.986314 71.25501,17.062903 c -1.022908,1.022906 -1.128172,1.966896 -0.359846,3.226978 0.645131,1.058038 0.837205,1.157423 4.525838,2.341794 6.905757,2.217346 9.672835,4.818305 9.111114,8.564133 -0.364691,2.431936 -1.933212,4.75026 -3.882075,5.737822 -2.468557,1.250913 -5.707237,1.667008 -8.868981,1.139458 z"
         style="fill:#000000;stroke-width:0.264583"
         id="path76" />
      <path
         id="path72"
         d="M 21.652308,49.351286 C 6.1036645,46.807227 -3.465324,31.716407 1.3514556,17.33573 3.8700942,9.8162398 9.9751411,3.7689402 17.462499,1.3770799 20.45724,0.42040076 22.262764,0.1585796 25.796874,0.16850294 c 5.497438,0.0154361 9.95281,1.36264696 14.405477,4.35591446 2.269173,1.5254298 5.282581,4.3184264 4.982734,4.6182747 C 45.097111,9.230665 44.179253,8.5924117 43.145399,7.7243511 34.948176,0.8416672 23.157609,0.65424064 14.560001,7.2699486 10.601338,10.31607 7.4137031,15.442321 6.3299759,20.505208 5.7847376,23.052417 5.9012562,27.536369 6.5798044,30.119274 10.144609,43.688761 24.416886,50.876526 37.306249,45.593639 c 1.976429,-0.81007 4.970409,-2.655612 6.416907,-3.9555 1.100863,-0.989282 1.890954,-1.219586 1.09858,-0.320225 -5.368142,6.092949 -14.877561,9.390083 -23.169428,8.033372 z"
         style="fill:#c51f36;fill-opacity:1;stroke-width:0.264583" />
    </g>
  </g>
</svg>
