<?xml version="1.0" encoding="UTF-8" standalone="no"?>
<svg
   xmlns:dc="http://purl.org/dc/elements/1.1/"
   xmlns:cc="http://creativecommons.org/ns#"
   xmlns:rdf="http://www.w3.org/1999/02/22-rdf-syntax-ns#"
   xmlns:svg="http://www.w3.org/2000/svg"
   xmlns="http://www.w3.org/2000/svg"
   xmlns:sodipodi="http://sodipodi.sourceforge.net/DTD/sodipodi-0.dtd"
   xmlns:inkscape="http://www.inkscape.org/namespaces/inkscape"
   inkscape:version="1.0 (4035a4fb49, 2020-05-01)"
   sodipodi:docname="react_200x200.svg"
   id="Layer_2"
   viewBox="0 0 199.99999 199.99999"
   width="200"
   height="200"
   version="1.1">
  <sodipodi:namedview
     inkscape:current-layer="Layer_2"
     inkscape:window-maximized="1"
     inkscape:window-y="-8"
     inkscape:window-x="-8"
     inkscape:cy="80.316646"
     inkscape:cx="185.96547"
     inkscape:zoom="1.5026019"
     showgrid="false"
     id="namedview12"
     inkscape:window-height="1017"
     inkscape:window-width="1920"
     inkscape:pageshadow="2"
     inkscape:pageopacity="0"
     guidetolerance="10"
     gridtolerance="10"
     objecttolerance="10"
     borderopacity="1"
     bordercolor="#666666"
     pagecolor="#ffffff" />
  <metadata
     id="metadata19">
    <rdf:RDF>
      <cc:Work
         rdf:about="">
        <dc:format>image/svg+xml</dc:format>
        <dc:type
           rdf:resource="http://purl.org/dc/dcmitype/StillImage" />
        <dc:title />
      </cc:Work>
    </rdf:RDF>
  </metadata>
  <defs
     id="defs17" />
  <style
     id="style2">.st0{fill:#222}.st1{fill:#00d8ff}.st2{fill:none;stroke:#00d8ff;stroke-width:144.7456;stroke-miterlimit:10}</style>
  <g
     id="g93"
     transform="matrix(0.04510013,0,0,0.04510013,18.541151,18.541995)">
    <path
       d="m 2492.2305,188.72461 c -2.3183,0.0155 -4.6576,0.0474 -7.0176,0.0957 a 110.00081,110.00081 0 0 0 -5.75,0.27149 c -72.8614,2.28135 -144.923,19.36218 -215.668,45.36914 -145.4528,53.47069 -294.4859,148.40652 -443.791,278.33203 -4.1746,3.63217 -8.3424,7.49517 -12.5156,11.18164 -151.9865,-132.25764 -303.4533,-228.43777 -450.3125,-283.25195 -76.0435,-28.38271 -153.1103,-46.83166 -230.666,-48.71094 -77.5309,-1.87868 -156.55497,13.89753 -226.70121,54.49609 -0.002,0.001 -0.004,0.003 -0.006,0.004 -0.008,0.005 -0.017,0.009 -0.0254,0.0137 -136.41417,78.92793 -200.68125,225.8956 -226.94531,378.36719 -26.30779,152.72551 -18.47204,329.25288 19.52149,523.4785 a 110.00081,110.00081 0 0 0 0.002,0.014 c 1.02291,5.226 2.24541,10.5585 3.3125,15.8086 -10.74699,3.559 -21.39614,7.175 -31.94336,10.8496 a 110.00081,110.00081 0 0 0 -0.0137,0 C 478.6614,1239.537 324.96521,1321.2067 208.78893,1420.5824 92.656869,1519.9241 2.0664062,1648.8063 2.0664062,1803.252 c 0,158.751 94.3320768,291.1114 215.5097638,394.8789 121.07672,103.6808 282.19249,190.1496 476.32422,256.7285 -1.75819,8.6912 -3.71483,17.4949 -5.34961,26.1152 -36.51365,192.5314 -42.51908,366.4595 -14.45703,516.7305 28.05155,150.2148 94.44106,293.0499 228.20313,370.2129 a 110.00081,110.00081 0 0 0 0.0117,0.01 c 137.51112,79.3038 299.28622,63.7029 449.71872,10.5801 150.3767,-53.1032 305.8624,-149.5301 460.586,-284.5508 5.7459,5.0672 11.4906,10.3204 17.2363,15.2812 a 110.00081,110.00081 0 0 0 2.4395,2.1621 c 148.5768,127.8286 296.2689,219.9028 440.4804,270.6348 142.8171,50.2415 298.1209,64.1855 430.9434,-10.7578 a 110.00081,110.00081 0 0 0 3.7422,-2.0684 c 137.4137,-79.4993 204.7149,-227.4505 233.8242,-384.3105 28.9683,-156.1003 23.2385,-338.0452 -15.9785,-538.4746 186.223,-64.7165 341.902,-146.4869 460.8242,-244.3946 125.3228,-103.1772 224.1641,-236.6296 224.1641,-398.7753 0,-157.5886 -94.972,-286.8422 -213.7793,-385.9727 -118.9939,-99.286 -275.6939,-180.9433 -462.8282,-245.3594 a 110.00081,110.00081 0 0 0 -0.012,0 c -5.1706,-1.7792 -10.5361,-3.4379 -15.7519,-5.1894 38.6255,-197.59165 46.2754,-376.7306 20.4394,-531.24222 -26.7732,-160.11644 -92.9951,-312.41247 -233.459,-393.40626 v -0.002 c -66.1168,-38.12376 -140.1443,-53.83618 -212.6621,-53.35156 z"
       style="color:#000000;font-style:normal;font-variant:normal;font-weight:normal;font-stretch:normal;font-size:medium;line-height:normal;font-family:sans-serif;font-variant-ligatures:normal;font-variant-position:normal;font-variant-caps:normal;font-variant-numeric:normal;font-variant-alternates:normal;font-variant-east-asian:normal;font-feature-settings:normal;font-variation-settings:normal;text-indent:0;text-align:start;text-decoration:none;text-decoration-line:none;text-decoration-style:solid;text-decoration-color:#000000;letter-spacing:normal;word-spacing:normal;text-transform:none;writing-mode:lr-tb;direction:ltr;text-orientation:mixed;dominant-baseline:auto;baseline-shift:baseline;text-anchor:start;white-space:normal;shape-padding:0;shape-margin:0;inline-size:0;clip-rule:nonzero;display:inline;overflow:visible;visibility:visible;opacity:1;isolation:auto;mix-blend-mode:normal;color-interpolation:sRGB;color-interpolation-filters:linearRGB;solid-color:#000000;solid-opacity:1;vector-effect:none;fill:#222222;fill-opacity:1;fill-rule:nonzero;stroke:none;stroke-width:144.746;stroke-linecap:butt;stroke-linejoin:miter;stroke-miterlimit:10;stroke-dasharray:none;stroke-dashoffset:0;stroke-opacity:1;color-rendering:auto;image-rendering:auto;shape-rendering:auto;text-rendering:auto;enable-background:accumulate;stop-color:#000000;stop-opacity:1"
       id="path72" />
    <circle
       id="circle6"
       r="302.60001"
       cy="1807.1"
       cx="1806.5"
       class="st1" />
    <path
       id="path8"
       d="m 1806.5,1191.9 c 406.2,0 783.6,58.3 1068.1,156.2 342.8,118 553.6,296.9 553.6,458.9 0,168.8 -223.4,358.9 -591.5,480.8 -278.3,92.2 -644.6,140.4 -1030.2,140.4 -395.4,0 -769.7,-45.2 -1051.2,-141.4 C 399.2,2165.1 184.7,1972.6 184.7,1807 c 0,-160.7 201.3,-338.2 539.3,-456 285.6,-99.5 672.3,-159.1 1082.5,-159.1 z"
       class="st2" />
    <path
       id="path10"
       d="m 1271,1501.3 c 202.9,-351.9 442,-649.7 669,-847.2 273.5,-238 533.8,-331.2 674.1,-250.3 146.2,84.3 199.3,372.8 121,752.7 -59.2,287.2 -200.4,628.5 -393.1,962.6 -197.5,342.5 -423.7,644.2 -647.6,840 -283.3,247.7 -557.3,337.3 -700.7,254.6 -139.2,-80.3 -192.4,-343.3 -125.7,-695 56.4,-297.4 198,-662.1 403,-1017.4 z"
       class="st2" />
    <path
       id="path12"
       d="M 1271.5,2119.8 C 1068,1768.2 929.4,1412.4 871.6,1117.1 802,761.3 851.2,489.2 991.4,408.1 c 146.1,-84.6 422.5,13.5 712.5,271 219.3,194.7 444.4,487.5 637.6,821.3 198.1,342.2 346.6,688.8 404.3,980.5 73.1,369.2 13.9,651.3 -129.4,734.2 -139.1,80.5 -393.5,-4.7 -664.9,-238.2 -229.2,-197.3 -474.5,-502.1 -680,-857.1 z"
       class="st2" />
  </g>
</svg>
