<?xml version="1.0" encoding="UTF-8" standalone="no"?>
<svg
   xmlns:dc="http://purl.org/dc/elements/1.1/"
   xmlns:cc="http://creativecommons.org/ns#"
   xmlns:rdf="http://www.w3.org/1999/02/22-rdf-syntax-ns#"
   xmlns:svg="http://www.w3.org/2000/svg"
   xmlns="http://www.w3.org/2000/svg"
   xmlns:sodipodi="http://sodipodi.sourceforge.net/DTD/sodipodi-0.dtd"
   xmlns:inkscape="http://www.inkscape.org/namespaces/inkscape"
   sodipodi:docname="subtitle.svg"
   inkscape:version="1.0 (4035a4fb49, 2020-05-01)"
   id="svg8"
   version="1.1"
   viewBox="0 0 221.377 3.9579999"
   height="3.9579999mm"
   width="221.377mm">
  <defs
     id="defs2" />
  <sodipodi:namedview
     inkscape:window-maximized="0"
     inkscape:window-y="0"
     inkscape:window-x="78"
     inkscape:window-height="1040"
     inkscape:window-width="1375"
     showgrid="false"
     inkscape:document-rotation="0"
     inkscape:current-layer="layer1"
     inkscape:document-units="mm"
     inkscape:cy="13.09177"
     inkscape:cx="13.197894"
     inkscape:zoom="15.839192"
     inkscape:pageshadow="2"
     inkscape:pageopacity="0.0"
     borderopacity="1.0"
     bordercolor="#666666"
     pagecolor="#ffffff"
     id="base" />
  <metadata
     id="metadata5">
    <rdf:RDF>
      <cc:Work
         rdf:about="">
        <dc:format>image/svg+xml</dc:format>
        <dc:type
           rdf:resource="http://purl.org/dc/dcmitype/StillImage" />
        <dc:title></dc:title>
      </cc:Work>
    </rdf:RDF>
  </metadata>
  <g
     id="layer1"
     inkscape:groupmode="layer"
     inkscape:label="Layer 1">
    <path
       d="m 217.99462,1.0579179 -0.0648,0.3958196 h 2.634 l -0.18709,1.0507211 h -2.634 l -0.072,0.3958196 h 3.18815 l -0.17992,1.0579179 h -3.68472 q -0.30226,0 -0.48218,-0.230295 -0.17272,-0.2302951 -0.11515,-0.5613442 l 0.41741,-2.3749176 q 0.0576,-0.3310492 0.31666,-0.5613442 Q 217.39006,0 217.69232,0 h 3.68472 l -0.18711,1.0579179 z M 215.91734,0.7916393 215.356,3.9581961 h -1.22344 l 0.35983,-2.0726554 -1.59047,2.0726554 -0.86361,-2.0726554 -0.35984,2.0726554 h -1.23064 l 0.56135,-3.1665568 q 0.0576,-0.3310492 0.30946,-0.5613442 Q 211.57772,0 211.87998,0 h 0.53976 L 213.24736,1.9934915 214.78026,0 h 0.53975 q 0.30227,0 0.47499,0.2302951 0.17992,0.230295 0.12234,0.5613442 z M 208.4557,3.9581961 209.15379,0 h 1.22344 l -0.69808,3.9581961 z M 208.43242,0 208.2453,1.0579179 h -1.59767 l -0.51097,2.9002782 h -1.23064 l 0.51817,-2.9002782 h -1.59767 L 204.01363,0 Z m -7.93247,0 q 0.30226,0 0.47498,0.2302951 0.17992,0.230295 0.12235,0.5613442 l -0.55415,3.1665568 h -1.23064 l 0.2303,-1.3169998 h -1.96471 l -0.23029,1.3169998 h -1.22345 l 0.55415,-3.1665568 q 0.0576,-0.3310492 0.31666,-0.5613442 Q 197.25423,0 197.55649,0 Z m -0.77005,1.5832785 0.0936,-0.5253606 h -1.96471 l -0.0935,0.5253606 z M 194.17955,0 193.99243,1.0579179 h -1.59767 l -0.51097,2.9002782 h -1.23064 l 0.51817,-2.9002782 h -1.59767 L 189.76076,0 Z m -6.13331,0 q 0.30227,0 0.47499,0.2302951 0.17992,0.230295 0.12234,0.5613442 l -0.55415,3.1665568 h -1.23063 l 0.23029,-1.3169998 h -1.9647 l -0.2303,1.3169998 h -1.22344 l 0.55415,-3.1665568 q 0.0576,-0.3310492 0.31665,-0.5613442 Q 184.80052,0 185.10279,0 Z m -0.77004,1.5832785 0.0935,-0.5253606 h -1.9647 l -0.0936,0.5253606 z M 180.9414,0 q 0.30226,0 0.47498,0.2302951 0.17992,0.230295 0.12235,0.5613442 l -0.18712,1.0579178 q -0.0576,0.3310491 -0.31665,0.5613442 -0.25189,0.230295 -0.55415,0.230295 h -2.45408 l -0.23749,1.3169998 h -1.22345 L 177.26388,0 Z m -0.77005,1.5832785 0.0936,-0.5253606 h -1.96471 l -0.0935,0.5253606 z M 175.61415,0 q 0.30226,0 0.47498,0.2302951 0.17992,0.230295 0.12234,0.5613442 l -0.18711,1.0579178 q -0.0576,0.3310491 -0.31666,0.5613442 -0.25188,0.230295 -0.55414,0.230295 h -2.45409 l -0.23749,1.3169998 h -1.22344 L 171.93662,0 Z m -0.77005,1.5832785 0.0935,-0.5253606 h -1.9647 l -0.0936,0.5253606 z M 170.26528,0 q 0.30227,0 0.47499,0.2302951 0.17992,0.230295 0.12234,0.5613442 l -0.55415,3.1665568 h -1.23063 l 0.23029,-1.3169998 h -1.9647 l -0.2303,1.3169998 h -1.22344 l 0.55415,-3.1665568 q 0.0576,-0.3310492 0.31665,-0.5613442 Q 167.01956,0 167.32183,0 Z m -0.77004,1.5832785 0.0935,-0.5253606 h -1.9647 l -0.0936,0.5253606 z m -8.976,-0.5253606 -0.0648,0.3958196 h 2.634 l -0.18711,1.0507211 h -2.634 l -0.072,0.3958196 h 3.18815 l -0.17992,1.0579179 h -3.68472 q -0.30226,0 -0.48218,-0.230295 -0.17272,-0.2302951 -0.11515,-0.5613442 l 0.41741,-2.3749176 q 0.0576,-0.3310492 0.31666,-0.5613442 Q 159.91466,0 160.21692,0 h 3.68472 l -0.18711,1.0579179 z M 158.57445,0 158.0131,3.1665569 q -0.0576,0.3310491 -0.31665,0.5613442 -0.25908,0.230295 -0.56135,0.230295 h -0.62611 l -1.39617,-2.4540816 -0.4318,2.4540816 h -1.22344 l 0.55415,-3.1665568 q 0.0576,-0.3310492 0.31665,-0.5613442 Q 154.58746,0 154.88973,0 h 0.62611 L 156.912,2.4540816 157.34381,0 Z m -7.06886,2.9002782 0.32385,-1.8423603 h -1.96471 l -0.32385,1.8423603 z M 152.50593,0 q 0.30226,0 0.47498,0.2302951 0.17992,0.230295 0.12235,0.5613442 l -0.41741,2.3749176 q -0.0576,0.3310491 -0.31666,0.5613442 -0.25908,0.230295 -0.56134,0.230295 h -2.94346 q -0.30226,0 -0.48218,-0.230295 -0.17272,-0.2302951 -0.11515,-0.5613442 l 0.41741,-2.3749176 q 0.0576,-0.3310492 0.31666,-0.5613442 Q 149.26021,0 149.56247,0 Z m -9.76765,1.0579179 -0.0648,0.3958196 h 2.634 l -0.18711,1.0507211 h -2.634 l -0.072,0.3958196 h 3.18815 l -0.17992,1.0579179 h -3.68472 q -0.30226,0 -0.48218,-0.230295 -0.17272,-0.2302951 -0.11515,-0.5613442 l 0.41741,-2.3749176 q 0.0576,-0.3310492 0.31666,-0.5613442 Q 142.1337,0 142.43596,0 h 3.68472 l -0.18711,1.0579179 z m -5.32725,0 -0.32385,1.8423603 h 3.18814 l -0.17991,1.0579179 h -3.68473 q -0.30226,0 -0.48218,-0.230295 -0.17272,-0.2302951 -0.11514,-0.5613442 l 0.41741,-2.3749176 q 0.0576,-0.3310492 0.31665,-0.5613442 Q 136.8065,0 137.10877,0 h 3.68472 l -0.18712,1.0579179 z M 134.70338,0 q 0.30226,0 0.47498,0.2302951 0.17992,0.230295 0.12235,0.5613442 l -0.55415,3.1665568 h -1.23064 l 0.2303,-1.3169998 h -1.96471 l -0.23029,1.3169998 h -1.22345 l 0.55415,-3.1665568 q 0.0576,-0.3310492 0.31666,-0.5613442 Q 131.45766,0 131.75992,0 Z m -0.77005,1.5832785 0.0936,-0.5253606 h -1.96471 l -0.0935,0.5253606 z m -4.31252,1.3169997 -0.17992,1.0579179 h -3.68472 q -0.30227,0 -0.48218,-0.230295 -0.17273,-0.2302951 -0.11515,-0.5613442 L 125.72018,0 h 1.22345 l -0.51097,2.9002782 z M 124.07044,0 q 0.30227,0 0.47499,0.2302951 0.17992,0.230295 0.12234,0.5613442 l -0.18711,1.0579178 q -0.0576,0.3310491 -0.31666,0.5613442 -0.25188,0.230295 -0.55415,0.230295 h -2.45408 l -0.23749,1.3169998 h -1.22344 L 120.39292,0 Z m -0.77005,1.5832785 0.0936,-0.5253606 h -1.9647 l -0.0936,0.5253606 z M 116.94401,0 q 0.30226,0 0.47498,0.2302951 0.17992,0.230295 0.12235,0.5613442 l -0.18712,1.0579178 q -0.0576,0.3310491 -0.31665,0.5613442 -0.25189,0.230295 -0.55415,0.230295 h -0.29507 l 0.79884,1.3169998 h -1.28102 l -0.79883,-1.3169998 h -0.878 l -0.23749,1.3169998 H 112.5684 L 113.26649,0 Z m -0.77005,1.5832785 0.0936,-0.5253606 h -1.96471 l -0.0936,0.5253606 z m -7.19841,-0.5253606 -0.0648,0.3958196 h 2.634 l -0.18712,1.0507211 h -2.63399 l -0.072,0.3958196 h 3.18815 l -0.17992,1.0579179 h -3.68472 q -0.30227,0 -0.48218,-0.230295 -0.17273,-0.2302951 -0.11515,-0.5613442 l 0.41741,-2.3749176 q 0.0576,-0.3310492 0.31665,-0.5613442 Q 108.37097,0 108.67323,0 h 3.68472 l -0.18712,1.0579179 z M 107.07393,0 106.88681,1.0579179 h -1.59767 l -0.51097,2.9002782 h -1.23064 l 0.51817,-2.9002782 h -1.59767 L 102.65514,0 Z m -5.32726,0 -0.18711,1.0579179 h -1.597684 l -0.51096,2.9002782 h -1.23064 l 0.51816,-2.9002782 h -1.59767 L 97.327886,0 Z m -8.752904,1.0579179 -0.06477,0.3958196 h 2.634 l -0.187115,1.0507211 h -2.634 l -0.07197,0.3958196 h 3.188147 L 95.67814,3.9581961 h -3.684721 q -0.302262,0 -0.48218,-0.230295 Q 91.338518,3.497606 91.396092,3.1665569 L 91.813501,0.7916393 Q 91.871071,0.4605901 92.130157,0.2302951 92.389239,0 92.691501,0 h 3.684721 L 96.189107,1.0579179 Z M 90.307707,0 q 0.302262,0 0.474983,0.2302951 0.179918,0.230295 0.122344,0.5613442 L 90.7611,1.6048686 q -0.02159,0.1151475 -0.115148,0.2302951 -0.08636,0.1079508 -0.194311,0.1439344 0.09356,0.035984 0.143934,0.1511311 0.05757,0.1079508 0.03598,0.2230983 l -0.143934,0.8132294 q -0.05757,0.3310491 -0.316656,0.5613442 -0.259082,0.230295 -0.561344,0.230295 H 85.932097 L 86.630179,0 Z m -1.000345,2.9002782 0.07197,-0.3958196 h -1.964705 l -0.07197,0.3958196 z m 0.251886,-1.4465407 0.07197,-0.3958196 h -1.964705 l -0.06477,0.3958196 z M 83.159674,0 q 0.302263,0 0.474984,0.2302951 0.179918,0.230295 0.122344,0.5613442 L 83.202855,3.9581961 H 81.972216 L 82.202511,2.6411963 H 80.237806 L 80.007511,3.9581961 H 78.784069 L 79.338216,0.7916393 Q 79.395786,0.4605901 79.654872,0.2302951 79.913954,0 80.216216,0 Z m -0.770049,1.5832785 0.09356,-0.5253606 H 80.51848 L 80.42492,1.5832785 Z M 76.054823,0 q 0.302262,0 0.474983,0.2302951 0.179918,0.230295 0.122344,0.5613442 l -0.417409,2.3749176 q -0.05757,0.3310491 -0.316656,0.5613442 -0.259082,0.230295 -0.561344,0.230295 H 71.679217 L 72.377299,0 Z m -1.000344,2.9002782 0.323852,-1.8423603 h -1.964705 l -0.323852,1.8423603 z m -4.103813,0 -0.179918,1.0579179 h -3.684721 q -0.302262,0 -0.48218,-0.230295 Q 66.431125,3.497606 66.488699,3.1665569 L 67.050043,0 h 1.223443 L 67.762519,2.9002782 Z M 65.400305,0 q 0.302262,0 0.474983,0.2302951 0.179918,0.230295 0.122344,0.5613442 l -0.187114,1.0579178 q -0.05757,0.3310491 -0.316656,0.5613442 -0.251885,0.230295 -0.554148,0.230295 h -0.295065 l 0.798836,1.3169998 H 64.162469 L 63.363633,2.6411963 h -0.878 L 62.248141,3.9581961 H 61.024699 L 61.722781,0 Z m -0.77005,1.5832785 0.09356,-0.5253606 H 62.75911 L 62.66555,1.5832785 Z M 59.072701,2.9002782 59.396554,1.0579179 H 57.431849 L 57.107997,2.9002782 Z M 60.073045,0 q 0.302263,0 0.474984,0.2302951 0.179918,0.230295 0.122344,0.5613442 l -0.41741,2.3749176 q -0.05757,0.3310491 -0.316655,0.5613442 -0.259082,0.230295 -0.561344,0.230295 h -2.943459 q -0.302262,0 -0.48218,-0.230295 Q 55.776604,3.497606 55.834177,3.1665569 l 0.41741,-2.3749176 Q 56.309157,0.4605901 56.568243,0.2302951 56.827325,0 57.129587,0 Z m -4.477708,0 -1.432148,3.1665569 q -0.151131,0.3310491 -0.474983,0.5613442 -0.323853,0.230295 -0.626115,0.230295 H 52.522337 L 52.097731,1.5041145 50.809518,3.9581961 h -0.539754 q -0.302263,0 -0.546951,-0.230295 Q 49.478124,3.497606 49.449338,3.1665569 L 49.132682,0 h 1.281016 L 50.643993,2.2813603 51.838649,0 H 52.88937 L 53.277993,2.2813603 54.31432,0 Z m -12.430421,1.0579179 -0.06477,0.3958196 h 2.634 l -0.187115,1.0507211 h -2.633999 l -0.07197,0.3958196 h 3.188147 l -0.179918,1.0579179 h -3.68472 q -0.302263,0 -0.482181,-0.230295 Q 41.509669,3.497606 41.567243,3.1665569 l 0.41741,-2.3749176 Q 42.042223,0.4605901 42.301308,0.2302951 42.56039,0 42.862652,0 h 3.684721 L 46.360258,1.0579179 Z M 41.220115,0 40.522033,3.9581961 H 39.291394 L 39.550476,2.5044586 H 37.585771 L 37.32669,3.9581961 H 36.103247 L 36.801329,0 h 1.223442 l -0.251885,1.4537375 h 1.957508 L 39.989476,0 Z M 35.936034,0 35.74892,1.0579179 H 34.151248 L 33.640281,3.9581961 H 32.409642 L 32.927805,1.0579179 H 31.330134 L 31.517248,0 Z M 25.383956,1.0579179 25.060103,2.9002782 h 1.964705 l 0.07197,-0.3958196 h -1.597672 l 0.187115,-1.0507211 h 2.821114 l -0.439,2.5044586 h -3.68472 q -0.302263,0 -0.482181,-0.230295 Q 23.728713,3.497606 23.786287,3.1665569 l 0.41741,-2.3749176 Q 24.261267,0.4605901 24.520352,0.2302951 24.779434,0 25.081696,0 h 3.684721 L 28.579302,1.0579179 Z M 23.439155,0 22.877811,3.1665569 q -0.05757,0.3310491 -0.316656,0.5613442 -0.259082,0.230295 -0.561344,0.230295 H 21.373696 L 19.977533,1.5041145 19.545729,3.9581961 H 18.322287 L 18.876434,0.7916393 Q 18.934004,0.4605901 19.19309,0.2302951 19.452172,0 19.754434,0 h 0.626115 L 21.776713,2.4540816 22.208516,0 Z M 16.322949,3.9581961 17.021031,0 h 1.223442 l -0.698082,3.9581961 z m -1.858441,-1.979098 1.093901,1.979098 H 13.996721 L 13.197885,2.5044586 H 12.622147 L 12.363066,3.9581961 H 11.139623 L 11.837705,0 h 1.223442 L 12.809262,1.4537375 H 13.385 L 14.694803,0 h 1.561688 z M 10.166379,0 q 0.302262,0 0.474984,0.2302951 0.179918,0.230295 0.122344,0.5613442 L 10.20956,3.9581961 H 8.9789199 L 9.2092149,2.6411963 H 7.2445109 L 7.0142159,3.9581961 H 5.7907733 L 6.3449208,0.7916393 Q 6.4024945,0.4605901 6.6615769,0.2302951 6.9206579,0 7.2229209,0 Z M 9.3963299,1.5832785 9.4898899,1.0579179 H 7.5251829 L 7.4316259,1.5832785 Z M 5.4695073,0.7916393 4.9081632,3.9581961 H 3.6847207 L 4.0445567,1.8855407 2.4540816,3.9581961 1.5904752,1.8855407 1.2306392,3.9581961 H 0 L 0.5613442,0.7916393 Q 0.618918,0.4605901 0.8708032,0.2302951 1.1298851,0 1.4321473,0 h 0.539754 L 2.7995242,1.9934915 4.3324255,0 h 0.5397541 q 0.3022622,0 0.4749835,0.2302951 0.179918,0.230295 0.1223442,0.5613442 z"
       style="font-style:normal;font-variant:normal;font-weight:normal;font-stretch:normal;font-size:7.19672px;line-height:1.25;font-family:ExcludedItalic;-inkscape-font-specification:ExcludedItalic;fill:none;fill-opacity:1;stroke:#e6e6e6;stroke-width:0.125;stroke-miterlimit:4;stroke-dasharray:none"
       id="path94" />
  </g>
</svg>
