<?xml version="1.0" encoding="UTF-8" standalone="no"?>
<svg
   xmlns:dc="http://purl.org/dc/elements/1.1/"
   xmlns:cc="http://creativecommons.org/ns#"
   xmlns:rdf="http://www.w3.org/1999/02/22-rdf-syntax-ns#"
   xmlns:svg="http://www.w3.org/2000/svg"
   xmlns="http://www.w3.org/2000/svg"
   xmlns:sodipodi="http://sodipodi.sourceforge.net/DTD/sodipodi-0.dtd"
   xmlns:inkscape="http://www.inkscape.org/namespaces/inkscape"
   inkscape:version="1.0 (4035a4fb49, 2020-05-01)"
   sodipodi:docname="ux-ui_200x200.svg"
   id="svg8"
   version="1.1"
   viewBox="0 0 52.916665 52.916668"
   height="200"
   width="200">
  <defs
     id="defs2" />
  <sodipodi:namedview
     inkscape:window-maximized="1"
     inkscape:window-y="-8"
     inkscape:window-x="-8"
     inkscape:window-height="1017"
     inkscape:window-width="1920"
     units="px"
     showgrid="false"
     inkscape:document-rotation="0"
     inkscape:current-layer="layer1"
     inkscape:document-units="mm"
     inkscape:cy="136.86186"
     inkscape:cx="44.768707"
     inkscape:zoom="1.979899"
     inkscape:pageshadow="2"
     inkscape:pageopacity="0.0"
     borderopacity="1.0"
     bordercolor="#666666"
     pagecolor="#ffffff"
     id="base" />
  <metadata
     id="metadata5">
    <rdf:RDF>
      <cc:Work
         rdf:about="">
        <dc:format>image/svg+xml</dc:format>
        <dc:type
           rdf:resource="http://purl.org/dc/dcmitype/StillImage" />
        <dc:title></dc:title>
      </cc:Work>
    </rdf:RDF>
  </metadata>
  <g
     id="layer1"
     inkscape:groupmode="layer"
     inkscape:label="Layer 1">
    <g
       transform="matrix(1.0376214,0,0,1.0376214,-1.0457266,-0.99506165)"
       style="font-style:normal;font-variant:normal;font-weight:bold;font-stretch:normal;font-size:29.1042px;line-height:1;font-family:'DejaVu Sans Mono';-inkscape-font-specification:'DejaVu Sans Mono Bold';text-align:center;text-anchor:middle;fill:none;fill-opacity:1;stroke:#333333;stroke-width:0.264583"
       id="text12"
       aria-label="UX
UI">
      <path
         id="path36"
         d="M 9.7558594,0.95898438 V 14.478516 c 0,2.897654 0.5738496,5.025518 1.7519526,6.36914 1.18755,1.343295 3.07655,2.00586 5.628907,2.00586 2.561745,0 4.448676,-0.66204 5.626953,-2.00586 1.178103,-1.343622 1.751953,-3.471486 1.751953,-6.36914 V 0.95898438 H 20.058594 V 15.529297 c 0,1.038648 -0.260863,1.836347 -0.775391,2.414062 -0.513938,0.568038 -1.217114,0.851563 -2.146484,0.851563 -0.928705,0 -1.632642,-0.284339 -2.146485,-0.851563 -0.514528,-0.577715 -0.777343,-1.375414 -0.777343,-2.414062 V 0.95898438 Z M 10.021484,1.2246094 h 3.925782 V 15.529297 c 0,1.083533 0.278239,1.954885 0.84375,2.589844 h 0.002 c 0.5661,0.62569 1.359367,0.939453 2.34375,0.939453 0.984382,0 1.775696,-0.313763 2.341797,-0.939453 h 0.002 c 0.56551,-0.634959 0.84375,-1.506311 0.84375,-2.589844 V 1.2246094 h 3.927734 V 14.478516 c 0,2.86255 -0.57289,4.922151 -1.6875,6.193359 -1.114438,1.271011 -2.911403,1.916016 -5.427734,1.916016 -2.506773,0 -4.305576,-0.64448 -5.429688,-1.916016 -1.11461,-1.271208 -1.685547,-3.330809 -1.685547,-6.193359 z"
         style="color:#000000;font-style:normal;font-variant:normal;font-weight:bold;font-stretch:normal;font-size:29.1042px;line-height:1;font-family:'DejaVu Sans Mono';-inkscape-font-specification:'DejaVu Sans Mono Bold';font-variant-ligatures:normal;font-variant-position:normal;font-variant-caps:normal;font-variant-numeric:normal;font-variant-alternates:normal;font-variant-east-asian:normal;font-feature-settings:normal;font-variation-settings:normal;text-indent:0;text-align:center;text-decoration:none;text-decoration-line:none;text-decoration-style:solid;text-decoration-color:#000000;letter-spacing:normal;word-spacing:normal;text-transform:none;writing-mode:lr-tb;direction:ltr;text-orientation:mixed;dominant-baseline:auto;baseline-shift:baseline;text-anchor:middle;white-space:normal;shape-padding:0;shape-margin:0;inline-size:0;clip-rule:nonzero;display:inline;overflow:visible;visibility:visible;opacity:1;isolation:auto;mix-blend-mode:normal;color-interpolation:sRGB;color-interpolation-filters:linearRGB;solid-color:#000000;solid-opacity:1;vector-effect:none;fill:#333333;fill-opacity:1;fill-rule:nonzero;stroke:none;stroke-width:0.264583;stroke-linecap:butt;stroke-linejoin:miter;stroke-miterlimit:4;stroke-dasharray:none;stroke-dashoffset:0;stroke-opacity:1;color-rendering:auto;image-rendering:auto;shape-rendering:auto;text-rendering:auto;enable-background:accumulate;stop-color:#000000;stop-opacity:1" />
      <path
         id="path40"
         d="M 26.214844,0.95898438 32.345703,11.537109 26.044922,22.441406 h 4.638672 l 3.958984,-6.888672 3.97461,6.888672 h 4.640624 L 43.142578,22.242188 36.984375,11.537109 43.085938,0.95898438 H 38.447266 L 34.644531,7.5761719 30.855469,0.95898438 Z m 0.458984,0.26562502 h 4.027344 l 3.943359,6.8828125 3.955078,-6.8828125 h 4.029297 l -5.949218,10.3124996 6.11914,10.638672 h -4.029297 l -4.125,-7.152343 -4.113281,7.152343 h -4.027344 l 6.146485,-10.638672 z"
         style="color:#000000;font-style:normal;font-variant:normal;font-weight:bold;font-stretch:normal;font-size:29.1042px;line-height:1;font-family:'DejaVu Sans Mono';-inkscape-font-specification:'DejaVu Sans Mono Bold';font-variant-ligatures:normal;font-variant-position:normal;font-variant-caps:normal;font-variant-numeric:normal;font-variant-alternates:normal;font-variant-east-asian:normal;font-feature-settings:normal;font-variation-settings:normal;text-indent:0;text-align:center;text-decoration:none;text-decoration-line:none;text-decoration-style:solid;text-decoration-color:#000000;letter-spacing:normal;word-spacing:normal;text-transform:none;writing-mode:lr-tb;direction:ltr;text-orientation:mixed;dominant-baseline:auto;baseline-shift:baseline;text-anchor:middle;white-space:normal;shape-padding:0;shape-margin:0;inline-size:0;clip-rule:nonzero;display:inline;overflow:visible;visibility:visible;opacity:1;isolation:auto;mix-blend-mode:normal;color-interpolation:sRGB;color-interpolation-filters:linearRGB;solid-color:#000000;solid-opacity:1;vector-effect:none;fill:#333333;fill-opacity:1;fill-rule:nonzero;stroke:none;stroke-width:0.264583;stroke-linecap:butt;stroke-linejoin:miter;stroke-miterlimit:4;stroke-dasharray:none;stroke-dashoffset:0;stroke-opacity:1;color-rendering:auto;image-rendering:auto;shape-rendering:auto;text-rendering:auto;enable-background:accumulate;stop-color:#000000;stop-opacity:1" />
      <path
         id="path44"
         d="m 9.7558594,30.064453 v 13.517578 c 0,2.897655 0.5738496,5.025518 1.7519526,6.369141 1.18755,1.343294 3.07655,2.005859 5.628907,2.005859 2.561744,0 4.448676,-0.662041 5.626953,-2.005859 1.178103,-1.343623 1.751953,-3.471486 1.751953,-6.369141 V 30.064453 h -4.457031 v 14.570313 c 0,1.038648 -0.260863,1.834393 -0.775391,2.412109 -0.513938,0.568037 -1.217114,0.851562 -2.146484,0.851563 -0.928705,-10e-7 -1.632642,-0.28434 -2.146485,-0.851563 -0.514528,-0.577716 -0.777343,-1.373461 -0.777343,-2.412109 V 30.064453 Z m 0.2656246,0.263672 h 3.925782 v 14.306641 c 0,1.083533 0.278239,1.952931 0.84375,2.58789 l 0.002,0.002 c 0.5661,0.62569 1.359367,0.9375 2.34375,0.9375 0.984382,0 1.775696,-0.31181 2.341797,-0.9375 h 0.002 v -0.002 c 0.56551,-0.634959 0.84375,-1.504357 0.84375,-2.58789 V 30.328125 h 3.927734 v 13.253906 c 0,2.862552 -0.57289,4.924105 -1.6875,6.195313 -1.114438,1.27101 -2.911403,1.916015 -5.427734,1.916015 -2.506773,0 -4.305576,-0.646433 -5.429688,-1.917968 -1.113925,-1.271304 -1.685547,-3.331699 -1.685547,-6.19336 z"
         style="color:#000000;font-style:normal;font-variant:normal;font-weight:bold;font-stretch:normal;font-size:29.1042px;line-height:1;font-family:'DejaVu Sans Mono';-inkscape-font-specification:'DejaVu Sans Mono Bold';font-variant-ligatures:normal;font-variant-position:normal;font-variant-caps:normal;font-variant-numeric:normal;font-variant-alternates:normal;font-variant-east-asian:normal;font-feature-settings:normal;font-variation-settings:normal;text-indent:0;text-align:center;text-decoration:none;text-decoration-line:none;text-decoration-style:solid;text-decoration-color:#000000;letter-spacing:normal;word-spacing:normal;text-transform:none;writing-mode:lr-tb;direction:ltr;text-orientation:mixed;dominant-baseline:auto;baseline-shift:baseline;text-anchor:middle;white-space:normal;shape-padding:0;shape-margin:0;inline-size:0;clip-rule:nonzero;display:inline;overflow:visible;visibility:visible;opacity:1;isolation:auto;mix-blend-mode:normal;color-interpolation:sRGB;color-interpolation-filters:linearRGB;solid-color:#000000;solid-opacity:1;vector-effect:none;fill:#333333;fill-opacity:1;fill-rule:nonzero;stroke:none;stroke-width:0.264583;stroke-linecap:butt;stroke-linejoin:miter;stroke-miterlimit:4;stroke-dasharray:none;stroke-dashoffset:0;stroke-opacity:1;color-rendering:auto;image-rendering:auto;shape-rendering:auto;text-rendering:auto;enable-background:accumulate;stop-color:#000000;stop-opacity:1" />
      <path
         id="path48"
         d="m 28.201172,30.064453 v 3.958985 h 0.132812 4.087891 v 13.5625 h -4.220703 v 3.958984 h 12.898437 v -3.958984 h -4.220703 v -13.5625 h 4.220703 v -3.958985 z m 0.265625,0.263672 h 12.369141 v 3.429687 h -4.220704 v 14.091797 h 4.220704 V 51.28125 H 28.466797 V 47.849609 H 32.6875 V 33.757812 h -4.220703 z"
         style="color:#000000;font-style:normal;font-variant:normal;font-weight:bold;font-stretch:normal;font-size:29.1042px;line-height:1;font-family:'DejaVu Sans Mono';-inkscape-font-specification:'DejaVu Sans Mono Bold';font-variant-ligatures:normal;font-variant-position:normal;font-variant-caps:normal;font-variant-numeric:normal;font-variant-alternates:normal;font-variant-east-asian:normal;font-feature-settings:normal;font-variation-settings:normal;text-indent:0;text-align:center;text-decoration:none;text-decoration-line:none;text-decoration-style:solid;text-decoration-color:#000000;letter-spacing:normal;word-spacing:normal;text-transform:none;writing-mode:lr-tb;direction:ltr;text-orientation:mixed;dominant-baseline:auto;baseline-shift:baseline;text-anchor:middle;white-space:normal;shape-padding:0;shape-margin:0;inline-size:0;clip-rule:nonzero;display:inline;overflow:visible;visibility:visible;opacity:1;isolation:auto;mix-blend-mode:normal;color-interpolation:sRGB;color-interpolation-filters:linearRGB;solid-color:#000000;solid-opacity:1;vector-effect:none;fill:#333333;fill-opacity:1;fill-rule:nonzero;stroke:none;stroke-width:0.264583;stroke-linecap:butt;stroke-linejoin:miter;stroke-miterlimit:4;stroke-dasharray:none;stroke-dashoffset:0;stroke-opacity:1;color-rendering:auto;image-rendering:auto;shape-rendering:auto;text-rendering:auto;enable-background:accumulate;stop-color:#000000;stop-opacity:1" />
    </g>
  </g>
</svg>
