<?xml version="1.0" encoding="UTF-8" standalone="no"?>
<svg
   xmlns:dc="http://purl.org/dc/elements/1.1/"
   xmlns:cc="http://creativecommons.org/ns#"
   xmlns:rdf="http://www.w3.org/1999/02/22-rdf-syntax-ns#"
   xmlns:svg="http://www.w3.org/2000/svg"
   xmlns="http://www.w3.org/2000/svg"
   xmlns:sodipodi="http://sodipodi.sourceforge.net/DTD/sodipodi-0.dtd"
   xmlns:inkscape="http://www.inkscape.org/namespaces/inkscape"
   width="200"
   height="200"
   viewBox="0 0 52.916665 52.916668"
   version="1.1"
   id="svg8"
   sodipodi:docname="ux-ui_200x200.svg"
   inkscape:version="1.0 (4035a4fb49, 2020-05-01)">
  <defs
     id="defs2" />
  <sodipodi:namedview
     id="base"
     pagecolor="#ffffff"
     bordercolor="#666666"
     borderopacity="1.0"
     inkscape:pageopacity="0.0"
     inkscape:pageshadow="2"
     inkscape:zoom="2.8"
     inkscape:cx="121.48755"
     inkscape:cy="97.360866"
     inkscape:document-units="mm"
     inkscape:current-layer="layer1"
     inkscape:document-rotation="0"
     showgrid="false"
     units="px"
     inkscape:window-width="1920"
     inkscape:window-height="1017"
     inkscape:window-x="-8"
     inkscape:window-y="-8"
     inkscape:window-maximized="1" />
  <metadata
     id="metadata5">
    <rdf:RDF>
      <cc:Work
         rdf:about="">
        <dc:format>image/svg+xml</dc:format>
        <dc:type
           rdf:resource="http://purl.org/dc/dcmitype/StillImage" />
        <dc:title />
      </cc:Work>
    </rdf:RDF>
  </metadata>
  <g
     inkscape:label="Layer 1"
     inkscape:groupmode="layer"
     id="layer1">
    <path
       d="m 26.155357,0.52916773 6.36151,10.97608927 -6.537825,11.314531 h 4.813185 l 4.107927,-7.147833 4.12414,7.147833 h 4.815211 L 43.719936,22.613076 37.330052,11.505257 43.661165,0.52916773 H 38.847979 L 34.90218,7.3953031 30.970568,0.52916773 Z m -17.0781951,0 V 14.557323 c 0,3.006668 0.5954386,5.214585 1.8178631,6.608756 1.232228,1.393832 3.192295,2.081324 5.840675,2.081324 2.658121,0 4.616041,-0.686947 5.838647,-2.081324 1.222424,-1.394171 1.817864,-3.602088 1.817864,-6.608756 V 0.52916773 H 19.7675 V 15.647636 c 0,1.077724 -0.270677,1.905433 -0.804563,2.504883 -0.533273,0.589408 -1.262903,0.8836 -2.227237,0.8836 -0.963644,0 -1.694065,-0.295037 -2.227239,-0.8836 -0.533885,-0.59945 -0.806588,-1.427159 -0.806588,-2.504883 V 0.52916773 Z"
       style="color:#000000;font-style:normal;font-variant:normal;font-weight:bold;font-stretch:normal;font-size:29.1042px;line-height:1;font-family:'DejaVu Sans Mono';-inkscape-font-specification:'DejaVu Sans Mono Bold';font-variant-ligatures:normal;font-variant-position:normal;font-variant-caps:normal;font-variant-numeric:normal;font-variant-alternates:normal;font-variant-east-asian:normal;font-feature-settings:normal;font-variation-settings:normal;text-indent:0;text-align:center;text-decoration:none;text-decoration-line:none;text-decoration-style:solid;text-decoration-color:#000000;letter-spacing:normal;word-spacing:normal;text-transform:none;writing-mode:lr-tb;direction:ltr;text-orientation:mixed;dominant-baseline:auto;baseline-shift:baseline;text-anchor:middle;white-space:normal;shape-padding:0;shape-margin:0;inline-size:0;clip-rule:nonzero;display:inline;overflow:visible;visibility:visible;isolation:auto;mix-blend-mode:normal;color-interpolation:sRGB;color-interpolation-filters:linearRGB;solid-color:#000000;solid-opacity:1;vector-effect:none;fill:#ffffff;fill-opacity:1;fill-rule:nonzero;stroke:#333333;stroke-width:0.274537;stroke-linecap:butt;stroke-linejoin:miter;stroke-miterlimit:4;stroke-dasharray:none;stroke-dashoffset:0;stroke-opacity:1;color-rendering:auto;image-rendering:auto;shape-rendering:auto;text-rendering:auto;enable-background:accumulate;stop-color:#000000"
       id="path40" />
    <path
       d="m 28.216413,29.671291 v 4.107928 h 0.137809 4.241683 v 14.07274 h -4.379492 v 4.107926 h 13.383694 v -4.107926 h -4.379492 v -14.07274 h 4.379492 v -4.107928 z m -19.1392511,0 v 14.026128 c 0,3.006669 0.5954386,5.214585 1.8178631,6.608757 1.232228,1.393831 3.192295,2.081323 5.840675,2.081323 2.65812,0 4.616041,-0.686948 5.838647,-2.081323 1.222424,-1.394172 1.817864,-3.602088 1.817864,-6.608757 V 29.671291 H 19.7675 V 44.78976 c 0,1.077723 -0.270677,1.903405 -0.804563,2.502856 -0.533273,0.589407 -1.262903,0.883599 -2.227237,0.8836 -0.963644,-10e-7 -1.694065,-0.295038 -2.227239,-0.8836 -0.533885,-0.599451 -0.806588,-1.425133 -0.806588,-2.502856 V 29.671291 Z"
       style="color:#000000;font-style:normal;font-variant:normal;font-weight:bold;font-stretch:normal;font-size:29.1042px;line-height:1;font-family:'DejaVu Sans Mono';-inkscape-font-specification:'DejaVu Sans Mono Bold';font-variant-ligatures:normal;font-variant-position:normal;font-variant-caps:normal;font-variant-numeric:normal;font-variant-alternates:normal;font-variant-east-asian:normal;font-feature-settings:normal;font-variation-settings:normal;text-indent:0;text-align:center;text-decoration:none;text-decoration-line:none;text-decoration-style:solid;text-decoration-color:#000000;letter-spacing:normal;word-spacing:normal;text-transform:none;writing-mode:lr-tb;direction:ltr;text-orientation:mixed;dominant-baseline:auto;baseline-shift:baseline;text-anchor:middle;white-space:normal;shape-padding:0;shape-margin:0;inline-size:0;clip-rule:nonzero;display:inline;overflow:visible;visibility:visible;isolation:auto;mix-blend-mode:normal;color-interpolation:sRGB;color-interpolation-filters:linearRGB;solid-color:#000000;solid-opacity:1;vector-effect:none;fill:#ffffff;fill-opacity:1;fill-rule:nonzero;stroke:#333333;stroke-width:0.274537;stroke-linecap:butt;stroke-linejoin:miter;stroke-miterlimit:4;stroke-dasharray:none;stroke-dashoffset:0;stroke-opacity:1;color-rendering:auto;image-rendering:auto;shape-rendering:auto;text-rendering:auto;enable-background:accumulate;stop-color:#000000"
       id="path48" />
  </g>
</svg>
